<svg width="30" height="30" viewBox="0 0 30 30" fill="none" xmlns="http://www.w3.org/2000/svg">
    <path d="M14.6655 0.842773L0.357788 6.99621L7.08975 9.27301L14.6655 6.04952V0.842773Z" fill="#B5D78A"/>
    <path fill-rule="evenodd" clip-rule="evenodd" d="M27.6325 23.1741L14.1899 29.6114V23.9839L29.1264 16.726V20.8023C29.1264 21.8145 28.5454 22.7369 27.6325 23.1741ZM21.9737 14.3069L29.1264 16.726V6.99621L21.9737 9.41531V14.3069ZM7.08975 14.4492L0.357788 16.726L14.1899 23.9839L14.3311 18.2512L7.08975 14.4492Z" fill="#354F14"/>
    <path d="M7.08975 9.27301V14.4492L14.3311 18.2512L21.9737 14.3069V9.41531L14.6655 6.04952L7.08975 9.27301Z" fill="#91C055"/>
    <path d="M14.1899 23.9839L29.1264 16.726L21.9737 14.3069L14.3311 18.2512L14.1899 23.9839Z" fill="#5D7C36"/>
    <path d="M14.1899 23.9839L0.357788 16.726V20.8581C0.357788 21.8412 0.906245 22.7423 1.77957 23.1939L14.1899 29.6114V23.9839Z" fill="#5D7C36"/>
    <path d="M0.357788 6.99621V16.726L7.08975 14.4492V9.27301L0.357788 6.99621Z" fill="#5D7C36"/>
    <path d="M14.6655 0.842773V6.04952L21.9737 9.41531L29.1264 6.99621L14.6655 0.842773Z" fill="#5D7C36"/>
</svg>
