<svg width="303" height="848" viewBox="0 0 303 848" fill="none" xmlns="http://www.w3.org/2000/svg">
<path d="M0 25C0 11.1929 11.1929 0 25 0H278C291.807 0 303 11.1929 303 25V823C303 836.807 291.807 848 278 848H25C11.1929 848 0 836.807 0 823V25Z" fill="black" fill-opacity="0.5"/>
<path d="M52.5152 64V44.96H55.5888V64H52.5152ZM48.7072 47.7616V44.96H55.3168V47.7616H48.7072ZM61.6128 64.272C61.0325 64.272 60.552 64.0816 60.1712 63.7008C59.8085 63.3019 59.6271 62.8213 59.6271 62.2592C59.6271 61.6789 59.8085 61.1984 60.1712 60.8176C60.552 60.4368 61.0325 60.2464 61.6128 60.2464C62.193 60.2464 62.6645 60.4368 63.0272 60.8176C63.408 61.1984 63.5984 61.6789 63.5984 62.2592C63.5984 62.8213 63.408 63.3019 63.0272 63.7008C62.6645 64.0816 62.193 64.272 61.6128 64.272Z" fill="white"/>
<path d="M126.86 61.5L121.5 54.1L126.64 47.32H131L125.14 54.68V53.42L131.22 61.5H126.86ZM118.26 61.5V47.32H121.84V61.5H118.26ZM135.752 61.7C134.846 61.7 134.039 61.48 133.332 61.04C132.626 60.6 132.072 60 131.672 59.24C131.272 58.4667 131.072 57.5933 131.072 56.62C131.072 55.6333 131.272 54.7533 131.672 53.98C132.072 53.2067 132.626 52.6067 133.332 52.18C134.039 51.74 134.846 51.52 135.752 51.52C136.366 51.52 136.926 51.6333 137.432 51.86C137.939 52.0733 138.352 52.38 138.672 52.78C139.006 53.18 139.206 53.6333 139.272 54.14V59.06C139.206 59.58 139.006 60.04 138.672 60.44C138.352 60.8267 137.939 61.1333 137.432 61.36C136.926 61.5867 136.366 61.7 135.752 61.7ZM136.492 58.6C137.066 58.6 137.526 58.4133 137.872 58.04C138.232 57.6667 138.412 57.1867 138.412 56.6C138.412 56.2133 138.332 55.8733 138.172 55.58C138.012 55.2867 137.786 55.0533 137.492 54.88C137.212 54.7067 136.886 54.62 136.512 54.62C136.139 54.62 135.806 54.7067 135.512 54.88C135.232 55.0533 135.006 55.2933 134.832 55.6C134.672 55.8933 134.592 56.2267 134.592 56.6C134.592 56.9867 134.672 57.3333 134.832 57.64C134.992 57.9333 135.219 58.1667 135.512 58.34C135.806 58.5133 136.132 58.6 136.492 58.6ZM138.272 61.5V58.88L138.772 56.48L138.272 54.12V51.72H141.692V61.5H138.272ZM147.843 61.72C146.87 61.72 145.936 61.5533 145.043 61.22C144.163 60.8733 143.436 60.3867 142.863 59.76L145.143 57.52C145.383 57.8667 145.736 58.1533 146.203 58.38C146.683 58.5933 147.183 58.7 147.703 58.7C148.17 58.7 148.57 58.62 148.903 58.46C149.25 58.2867 149.516 58.0533 149.703 57.76C149.903 57.4533 150.003 57.0933 150.003 56.68C150.003 56.2667 149.903 55.9067 149.703 55.6C149.516 55.2933 149.243 55.0533 148.883 54.88C148.523 54.7067 148.09 54.62 147.583 54.62C147.13 54.62 146.71 54.6867 146.323 54.82C145.95 54.94 145.61 55.1133 145.303 55.34L145.643 53.06C146.003 52.8467 146.323 52.6667 146.603 52.52C146.883 52.3733 147.176 52.2667 147.483 52.2C147.803 52.1333 148.176 52.1 148.603 52.1C149.683 52.1 150.583 52.32 151.303 52.76C152.036 53.1867 152.59 53.76 152.963 54.48C153.336 55.1867 153.523 55.9667 153.523 56.82C153.523 57.78 153.29 58.6333 152.823 59.38C152.356 60.1133 151.696 60.6867 150.843 61.1C150.003 61.5133 149.003 61.72 147.843 61.72ZM145.303 55.34L143.903 54.06L144.603 47.32H147.803L147.063 53.84L145.303 55.34ZM145.043 50.3L144.603 47.32H152.743V50.3H145.043Z" fill="white"/>
<path d="M211.16 61.76C210.067 61.76 209.06 61.5733 208.14 61.2C207.22 60.8267 206.413 60.3067 205.72 59.64C205.04 58.9733 204.507 58.1933 204.12 57.3C203.747 56.3933 203.56 55.42 203.56 54.38C203.56 53.34 203.747 52.38 204.12 51.5C204.493 50.6067 205.02 49.8267 205.7 49.16C206.38 48.4933 207.18 47.98 208.1 47.62C209.02 47.2467 210.027 47.06 211.12 47.06C212.213 47.06 213.22 47.2467 214.14 47.62C215.06 47.98 215.86 48.4933 216.54 49.16C217.22 49.8267 217.747 50.6067 218.12 51.5C218.507 52.3933 218.7 53.36 218.7 54.4C218.7 55.44 218.507 56.4067 218.12 57.3C217.747 58.1933 217.22 58.98 216.54 59.66C215.86 60.3267 215.06 60.8467 214.14 61.22C213.233 61.58 212.24 61.76 211.16 61.76ZM217.4 62.72L210.64 55.96L212.64 53.98L219.38 60.72L217.4 62.72ZM211.12 58.56C211.92 58.56 212.613 58.3867 213.2 58.04C213.787 57.6933 214.24 57.2067 214.56 56.58C214.88 55.9533 215.04 55.22 215.04 54.38C215.04 53.7667 214.947 53.2067 214.76 52.7C214.587 52.1933 214.327 51.76 213.98 51.4C213.633 51.0267 213.22 50.74 212.74 50.54C212.26 50.34 211.72 50.24 211.12 50.24C210.333 50.24 209.64 50.4133 209.04 50.76C208.453 51.0933 208 51.5733 207.68 52.2C207.36 52.8267 207.2 53.5533 207.2 54.38C207.2 55.02 207.293 55.6 207.48 56.12C207.667 56.6267 207.927 57.0667 208.26 57.44C208.607 57.8 209.02 58.08 209.5 58.28C209.993 58.4667 210.533 58.56 211.12 58.56ZM226.367 61.5L224.267 57.88L223.467 57.4L219.607 51.72H223.627L225.687 55.24L226.447 55.68L230.367 61.5H226.367ZM219.407 61.5L223.427 55.72L225.407 57.86L223.127 61.5H219.407ZM226.327 57.4L224.347 55.26L226.447 51.72H230.167L226.327 57.4ZM237.223 61.7C236.596 61.7 236.016 61.58 235.483 61.34C234.949 61.0867 234.509 60.7467 234.163 60.32C233.816 59.8933 233.603 59.4267 233.523 58.92V54.14C233.603 53.6333 233.816 53.18 234.163 52.78C234.523 52.38 234.969 52.0733 235.503 51.86C236.036 51.6333 236.609 51.52 237.223 51.52C238.169 51.52 239.003 51.74 239.723 52.18C240.443 52.6067 241.003 53.2067 241.403 53.98C241.816 54.7533 242.023 55.6333 242.023 56.62C242.023 57.5933 241.816 58.4667 241.403 59.24C241.003 60 240.443 60.6 239.723 61.04C239.003 61.48 238.169 61.7 237.223 61.7ZM231.403 61.5V46.92H234.883V54.12L234.303 56.48L234.803 58.88V61.5H231.403ZM236.603 58.6C236.976 58.6 237.303 58.5133 237.583 58.34C237.876 58.1667 238.103 57.9333 238.263 57.64C238.423 57.3333 238.503 56.9867 238.503 56.6C238.503 56.2267 238.423 55.8933 238.263 55.6C238.103 55.2933 237.876 55.0533 237.583 54.88C237.289 54.7067 236.956 54.62 236.583 54.62C236.209 54.62 235.876 54.7067 235.583 54.88C235.303 55.0533 235.083 55.2867 234.923 55.58C234.763 55.8733 234.683 56.2133 234.683 56.6C234.683 57 234.763 57.3533 234.923 57.66C235.083 57.9533 235.309 58.1867 235.603 58.36C235.896 58.52 236.229 58.6 236.603 58.6ZM242.794 56.64L247.234 47.32H251.074L246.514 56.64H242.794ZM242.794 58.6V56.64L243.834 55.62H254.314V58.6H242.794ZM249.454 61.5V52.96H252.954V61.5H249.454Z" fill="white"/>
<path d="M48.7616 144.373L55.7792 136.92C56.3595 136.303 56.8309 135.75 57.1936 135.261C57.5563 134.771 57.8192 134.309 57.9824 133.873C58.1456 133.438 58.2272 132.994 58.2272 132.541C58.2272 131.688 57.9461 131.026 57.384 130.555C56.84 130.065 56.1419 129.821 55.2896 129.821C54.3829 129.821 53.5851 130.047 52.896 130.501C52.2069 130.954 51.5904 131.661 51.0464 132.622L48.8704 130.827C49.6139 129.54 50.5296 128.569 51.6176 127.917C52.7056 127.246 53.9659 126.91 55.3984 126.91C56.5771 126.91 57.6107 127.146 58.4992 127.617C59.3877 128.089 60.0768 128.751 60.5664 129.603C61.056 130.437 61.3008 131.407 61.3008 132.513C61.3008 133.311 61.2011 134.028 61.0016 134.662C60.8203 135.279 60.5029 135.904 60.0496 136.539C59.5963 137.156 58.9707 137.881 58.1728 138.715L52.7872 144.291L48.7616 144.373ZM48.7616 146.222V144.373L51.4544 143.421H61.6816V146.222H48.7616ZM66.6596 146.494C66.0794 146.494 65.5988 146.304 65.218 145.923C64.8554 145.524 64.674 145.044 64.674 144.481C64.674 143.901 64.8554 143.421 65.218 143.04C65.5988 142.659 66.0794 142.469 66.6596 142.469C67.2399 142.469 67.7114 142.659 68.074 143.04C68.4548 143.421 68.6452 143.901 68.6452 144.481C68.6452 145.044 68.4548 145.524 68.074 145.923C67.7114 146.304 67.2399 146.494 66.6596 146.494Z" fill="white"/>
<path d="M122.86 143.942C121.82 143.942 120.88 143.722 120.04 143.282C119.213 142.842 118.56 142.236 118.08 141.462C117.6 140.689 117.36 139.816 117.36 138.842C117.36 137.856 117.6 136.976 118.08 136.202C118.573 135.429 119.233 134.822 120.06 134.382C120.9 133.929 121.847 133.702 122.9 133.702C123.66 133.702 124.353 133.829 124.98 134.082C125.607 134.336 126.18 134.716 126.7 135.222L124.5 137.422C124.3 137.222 124.067 137.076 123.8 136.982C123.547 136.876 123.247 136.822 122.9 136.822C122.527 136.822 122.187 136.909 121.88 137.082C121.587 137.242 121.347 137.469 121.16 137.762C120.987 138.056 120.9 138.409 120.9 138.822C120.9 139.222 120.987 139.576 121.16 139.882C121.347 140.176 121.587 140.409 121.88 140.582C122.187 140.756 122.527 140.842 122.9 140.842C123.273 140.842 123.593 140.782 123.86 140.662C124.127 140.542 124.36 140.369 124.56 140.142L126.78 142.342C126.233 142.876 125.64 143.276 125 143.542C124.373 143.809 123.66 143.942 122.86 143.942ZM127.38 138.862L131.82 129.542H135.66L131.1 138.862H127.38ZM127.38 140.822V138.862L128.42 137.842H138.9V140.822H127.38ZM134.04 143.722V135.182H137.54V143.722H134.04Z" fill="white"/>
<path d="M212.1 143.722V141.062H215.06C215.62 141.062 216.06 140.909 216.38 140.602C216.713 140.282 216.88 139.869 216.88 139.362C216.88 139.029 216.807 138.736 216.66 138.482C216.513 138.216 216.3 138.016 216.02 137.882C215.753 137.736 215.433 137.662 215.06 137.662H212.1V135.082H214.84C215.307 135.082 215.687 134.969 215.98 134.742C216.287 134.502 216.44 134.136 216.44 133.642C216.44 133.149 216.287 132.789 215.98 132.562C215.687 132.322 215.307 132.202 214.84 132.202H212.1V129.542H215.7C216.58 129.542 217.34 129.709 217.98 130.042C218.633 130.376 219.133 130.822 219.48 131.382C219.827 131.942 220 132.576 220 133.282C220 134.229 219.673 135.016 219.02 135.642C218.38 136.256 217.447 136.636 216.22 136.782V135.582C217.58 135.742 218.62 136.182 219.34 136.902C220.06 137.609 220.42 138.502 220.42 139.582C220.42 140.382 220.22 141.096 219.82 141.722C219.42 142.336 218.853 142.822 218.12 143.182C217.4 143.542 216.547 143.722 215.56 143.722H212.1ZM209.26 143.722V129.542H212.78V143.722H209.26ZM227.988 143.722L225.888 140.102L225.088 139.622L221.228 133.942H225.248L227.308 137.462L228.068 137.902L231.988 143.722H227.988ZM221.028 143.722L225.048 137.942L227.028 140.082L224.748 143.722H221.028ZM227.948 139.622L225.968 137.482L228.068 133.942H231.788L227.948 139.622ZM237.63 143.942C236.59 143.942 235.65 143.722 234.81 143.282C233.983 142.842 233.33 142.236 232.85 141.462C232.37 140.689 232.13 139.816 232.13 138.842C232.13 137.856 232.37 136.976 232.85 136.202C233.343 135.429 234.003 134.822 234.83 134.382C235.67 133.929 236.616 133.702 237.67 133.702C238.43 133.702 239.123 133.829 239.75 134.082C240.376 134.336 240.95 134.716 241.47 135.222L239.27 137.422C239.07 137.222 238.836 137.076 238.57 136.982C238.316 136.876 238.016 136.822 237.67 136.822C237.296 136.822 236.956 136.909 236.65 137.082C236.356 137.242 236.116 137.469 235.93 137.762C235.756 138.056 235.67 138.409 235.67 138.822C235.67 139.222 235.756 139.576 235.93 139.882C236.116 140.176 236.356 140.409 236.65 140.582C236.956 140.756 237.296 140.842 237.67 140.842C238.043 140.842 238.363 140.782 238.63 140.662C238.896 140.542 239.13 140.369 239.33 140.142L241.55 142.342C241.003 142.876 240.41 143.276 239.77 143.542C239.143 143.809 238.43 143.942 237.63 143.942ZM242.149 138.862L246.589 129.542H250.429L245.869 138.862H242.149ZM242.149 140.822V138.862L243.189 137.842H253.669V140.822H242.149ZM248.809 143.722V135.182H252.309V143.722H248.809Z" fill="white"/>
<path d="M54.6912 228.716C53.4219 228.716 52.2704 228.49 51.2368 228.036C50.2213 227.565 49.36 226.885 48.6528 225.996L50.7744 223.875C51.1552 224.455 51.6901 224.918 52.3792 225.262C53.0683 225.607 53.8208 225.779 54.6368 225.779C55.4165 225.779 56.0875 225.634 56.6496 225.344C57.2117 225.054 57.6469 224.646 57.9552 224.12C58.2816 223.594 58.4448 222.986 58.4448 222.297C58.4448 221.572 58.2816 220.955 57.9552 220.448C57.6469 219.94 57.1936 219.55 56.5952 219.278C56.0149 218.988 55.3077 218.843 54.4736 218.843C54.1472 218.843 53.8117 218.87 53.4672 218.924C53.1227 218.961 52.8144 219.024 52.5424 219.115L53.9296 217.32C54.3104 217.175 54.7093 217.057 55.1264 216.966C55.5616 216.857 55.9787 216.803 56.3776 216.803C57.3568 216.803 58.2363 217.039 59.016 217.51C59.8139 217.982 60.4395 218.643 60.8928 219.496C61.3643 220.33 61.6 221.318 61.6 222.46C61.6 223.694 61.3099 224.782 60.7296 225.724C60.1493 226.667 59.3424 227.402 58.3088 227.928C57.2752 228.454 56.0693 228.716 54.6912 228.716ZM52.5424 219.115V217.265L57.6288 211.336L61.3824 211.254L56.0784 217.347L52.5424 219.115ZM49.6048 212.206V209.404H61.3824V211.254L58.6896 212.206H49.6048ZM65.9159 228.716C65.3356 228.716 64.8551 228.526 64.4743 228.145C64.1116 227.746 63.9303 227.266 63.9303 226.704C63.9303 226.123 64.1116 225.643 64.4743 225.262C64.8551 224.881 65.3356 224.691 65.9159 224.691C66.4961 224.691 66.9676 224.881 67.3303 225.262C67.7111 225.643 67.9015 226.123 67.9015 226.704C67.9015 227.266 67.7111 227.746 67.3303 228.145C66.9676 228.526 66.4961 228.716 65.9159 228.716Z" fill="white"/>
<path d="M126.86 225.944L121.5 218.544L126.64 211.764H131L125.14 219.124V217.864L131.22 225.944H126.86ZM118.26 225.944V211.764H121.84V225.944H118.26ZM137.671 225.944L135.571 222.324L134.771 221.844L130.911 216.164H134.931L136.991 219.684L137.751 220.124L141.671 225.944H137.671ZM130.711 225.944L134.731 220.164L136.711 222.304L134.431 225.944H130.711ZM137.631 221.844L135.651 219.704L137.751 216.164H141.471L137.631 221.844ZM147.313 226.164C146.273 226.164 145.333 225.944 144.493 225.504C143.666 225.064 143.013 224.458 142.533 223.684C142.053 222.911 141.813 222.038 141.813 221.064C141.813 220.078 142.053 219.198 142.533 218.424C143.026 217.651 143.686 217.044 144.513 216.604C145.353 216.151 146.3 215.924 147.353 215.924C148.113 215.924 148.806 216.051 149.433 216.304C150.06 216.558 150.633 216.938 151.153 217.444L148.953 219.644C148.753 219.444 148.52 219.298 148.253 219.204C148 219.098 147.7 219.044 147.353 219.044C146.98 219.044 146.64 219.131 146.333 219.304C146.04 219.464 145.8 219.691 145.613 219.984C145.44 220.278 145.353 220.631 145.353 221.044C145.353 221.444 145.44 221.798 145.613 222.104C145.8 222.398 146.04 222.631 146.333 222.804C146.64 222.978 146.98 223.064 147.353 223.064C147.726 223.064 148.046 223.004 148.313 222.884C148.58 222.764 148.813 222.591 149.013 222.364L151.233 224.564C150.686 225.098 150.093 225.498 149.453 225.764C148.826 226.031 148.113 226.164 147.313 226.164ZM151.833 221.084L156.273 211.764H160.113L155.553 221.084H151.833ZM151.833 223.044V221.084L152.873 220.064H163.353V223.044H151.833ZM158.493 225.944V217.404H161.993V225.944H158.493Z" fill="white"/>
<path d="M236.22 225.944V215.544C236.22 214.718 236.4 213.978 236.76 213.324C237.12 212.658 237.633 212.124 238.3 211.724C238.98 211.324 239.793 211.124 240.74 211.124C241.447 211.124 242.067 211.244 242.6 211.484C243.133 211.711 243.593 212.018 243.98 212.404L241.8 214.584C241.693 214.464 241.56 214.378 241.4 214.324C241.253 214.258 241.08 214.224 240.88 214.224C240.52 214.224 240.233 214.331 240.02 214.544C239.807 214.758 239.7 215.044 239.7 215.404V225.944H236.22ZM234.14 219.064V216.164H242.46V219.064H234.14ZM248.163 226.164C247.163 226.164 246.243 225.998 245.403 225.664C244.563 225.318 243.85 224.831 243.263 224.204L245.543 221.964C245.783 222.311 246.136 222.598 246.603 222.824C247.083 223.038 247.583 223.144 248.103 223.144C248.543 223.144 248.93 223.071 249.263 222.924C249.61 222.764 249.876 222.544 250.063 222.264C250.263 221.971 250.363 221.624 250.363 221.224C250.363 220.824 250.263 220.484 250.063 220.204C249.863 219.911 249.576 219.691 249.203 219.544C248.843 219.398 248.41 219.324 247.903 219.324C247.636 219.324 247.356 219.344 247.063 219.384C246.783 219.411 246.556 219.458 246.383 219.524L247.943 217.564C248.37 217.458 248.756 217.371 249.103 217.304C249.463 217.224 249.783 217.184 250.063 217.184C250.783 217.184 251.43 217.358 252.003 217.704C252.576 218.038 253.03 218.518 253.363 219.144C253.696 219.758 253.863 220.484 253.863 221.324C253.863 222.284 253.63 223.131 253.163 223.864C252.696 224.584 252.03 225.151 251.163 225.564C250.31 225.964 249.31 226.164 248.163 226.164ZM246.383 219.524V217.564L249.683 213.704H253.563L250.163 217.564L246.383 219.524ZM244.243 214.744V211.764H253.563V213.704L250.863 214.744H244.243Z" fill="white"/>
<path d="M48.7616 303.867L55.5344 291.627H59.0704L52.1344 303.867H48.7616ZM48.7616 305.771V303.867L50.0944 302.969H63.5312V305.771H48.7616ZM57.792 310.667V298.209H60.8656V310.667H57.792ZM67.244 310.939C66.6637 310.939 66.1832 310.748 65.8024 310.367C65.4397 309.969 65.2584 309.488 65.2584 308.926C65.2584 308.346 65.4397 307.865 65.8024 307.484C66.1832 307.103 66.6637 306.913 67.244 306.913C67.8243 306.913 68.2957 307.103 68.6584 307.484C69.0392 307.865 69.2296 308.346 69.2296 308.926C69.2296 309.488 69.0392 309.969 68.6584 310.367C68.2957 310.748 67.8243 310.939 67.244 310.939Z" fill="white"/>
<path d="M125.16 308.427C124.067 308.427 123.06 308.24 122.14 307.867C121.22 307.493 120.413 306.973 119.72 306.307C119.04 305.64 118.507 304.86 118.12 303.967C117.747 303.06 117.56 302.087 117.56 301.047C117.56 300.007 117.747 299.047 118.12 298.167C118.493 297.273 119.02 296.493 119.7 295.827C120.38 295.16 121.18 294.647 122.1 294.287C123.02 293.913 124.027 293.727 125.12 293.727C126.213 293.727 127.22 293.913 128.14 294.287C129.06 294.647 129.86 295.16 130.54 295.827C131.22 296.493 131.747 297.273 132.12 298.167C132.507 299.06 132.7 300.027 132.7 301.067C132.7 302.107 132.507 303.073 132.12 303.967C131.747 304.86 131.22 305.647 130.54 306.327C129.86 306.993 129.06 307.513 128.14 307.887C127.233 308.247 126.24 308.427 125.16 308.427ZM131.4 309.387L124.64 302.627L126.64 300.647L133.38 307.387L131.4 309.387ZM125.12 305.227C125.92 305.227 126.613 305.053 127.2 304.707C127.787 304.36 128.24 303.873 128.56 303.247C128.88 302.62 129.04 301.887 129.04 301.047C129.04 300.433 128.947 299.873 128.76 299.367C128.587 298.86 128.327 298.427 127.98 298.067C127.633 297.693 127.22 297.407 126.74 297.207C126.26 297.007 125.72 296.907 125.12 296.907C124.333 296.907 123.64 297.08 123.04 297.427C122.453 297.76 122 298.24 121.68 298.867C121.36 299.493 121.2 300.22 121.2 301.047C121.2 301.687 121.293 302.267 121.48 302.787C121.667 303.293 121.927 303.733 122.26 304.107C122.607 304.467 123.02 304.747 123.5 304.947C123.993 305.133 124.533 305.227 125.12 305.227ZM140.367 308.167L138.267 304.547L137.467 304.067L133.607 298.387H137.627L139.687 301.907L140.447 302.347L144.367 308.167H140.367ZM133.407 308.167L137.427 302.387L139.407 304.527L137.127 308.167H133.407ZM140.327 304.067L138.347 301.927L140.447 298.387H144.167L140.327 304.067ZM151.743 308.167V302.647C151.743 302.193 151.609 301.84 151.343 301.587C151.076 301.32 150.736 301.187 150.323 301.187C150.043 301.187 149.789 301.247 149.563 301.367C149.349 301.487 149.183 301.653 149.063 301.867C148.943 302.08 148.883 302.34 148.883 302.647L147.523 302.007C147.523 301.22 147.683 300.547 148.003 299.987C148.336 299.413 148.789 298.973 149.363 298.667C149.936 298.347 150.603 298.187 151.363 298.187C152.149 298.187 152.829 298.347 153.403 298.667C153.989 298.973 154.436 299.4 154.743 299.947C155.063 300.493 155.223 301.127 155.223 301.847V308.167H151.743ZM145.403 308.167V293.587H148.883V308.167H145.403ZM161.183 308.387C160.21 308.387 159.276 308.22 158.383 307.887C157.503 307.54 156.776 307.053 156.203 306.427L158.483 304.187C158.723 304.533 159.076 304.82 159.543 305.047C160.023 305.26 160.523 305.367 161.043 305.367C161.51 305.367 161.91 305.287 162.243 305.127C162.59 304.953 162.856 304.72 163.043 304.427C163.243 304.12 163.343 303.76 163.343 303.347C163.343 302.933 163.243 302.573 163.043 302.267C162.856 301.96 162.583 301.72 162.223 301.547C161.863 301.373 161.43 301.287 160.923 301.287C160.47 301.287 160.05 301.353 159.663 301.487C159.29 301.607 158.95 301.78 158.643 302.007L158.983 299.727C159.343 299.513 159.663 299.333 159.943 299.187C160.223 299.04 160.516 298.933 160.823 298.867C161.143 298.8 161.516 298.767 161.943 298.767C163.023 298.767 163.923 298.987 164.643 299.427C165.376 299.853 165.93 300.427 166.303 301.147C166.676 301.853 166.863 302.633 166.863 303.487C166.863 304.447 166.63 305.3 166.163 306.047C165.696 306.78 165.036 307.353 164.183 307.767C163.343 308.18 162.343 308.387 161.183 308.387ZM158.643 302.007L157.243 300.727L157.943 293.987H161.143L160.403 300.507L158.643 302.007ZM158.383 296.967L157.943 293.987H166.083V296.967H158.383Z" fill="white"/>
<path d="M235.22 308.367C234.273 308.367 233.44 308.147 232.72 307.707C232 307.267 231.433 306.667 231.02 305.907C230.62 305.133 230.42 304.26 230.42 303.287C230.42 302.3 230.62 301.42 231.02 300.647C231.433 299.873 231.993 299.273 232.7 298.847C233.42 298.407 234.26 298.187 235.22 298.187C235.833 298.187 236.407 298.3 236.94 298.527C237.473 298.74 237.92 299.047 238.28 299.447C238.64 299.847 238.853 300.3 238.92 300.807V305.587C238.853 306.093 238.64 306.56 238.28 306.987C237.92 307.413 237.473 307.753 236.94 308.007C236.407 308.247 235.833 308.367 235.22 308.367ZM235.84 305.267C236.227 305.267 236.56 305.187 236.84 305.027C237.12 304.853 237.34 304.62 237.5 304.327C237.673 304.02 237.76 303.667 237.76 303.267C237.76 302.88 237.68 302.54 237.52 302.247C237.36 301.953 237.133 301.72 236.84 301.547C236.56 301.373 236.233 301.287 235.86 301.287C235.487 301.287 235.153 301.373 234.86 301.547C234.58 301.72 234.353 301.96 234.18 302.267C234.02 302.56 233.94 302.893 233.94 303.267C233.94 303.653 234.02 304 234.18 304.307C234.34 304.6 234.567 304.833 234.86 305.007C235.153 305.18 235.48 305.267 235.84 305.267ZM241.04 308.167H237.62V305.547L238.12 303.147L237.56 300.787V293.587H241.04V308.167ZM242.411 303.307L246.851 293.987H250.691L246.131 303.307H242.411ZM242.411 305.267V303.307L243.451 302.287H253.931V305.267H242.411ZM249.071 308.167V299.627H252.571V308.167H249.071Z" fill="white"/>
<path d="M54.7184 393.161C53.3947 393.161 52.216 392.934 51.1824 392.481C50.1488 392.009 49.2784 391.329 48.5712 390.441L50.6928 388.319C51.0736 388.9 51.6085 389.362 52.2976 389.707C53.0048 390.051 53.7936 390.223 54.664 390.223C55.4619 390.223 56.16 390.078 56.7584 389.788C57.3568 389.498 57.8283 389.081 58.1728 388.537C58.5173 387.993 58.6896 387.349 58.6896 386.606C58.6896 385.826 58.5173 385.182 58.1728 384.675C57.8464 384.149 57.4021 383.759 56.84 383.505C56.296 383.233 55.7067 383.097 55.072 383.097C54.3467 383.097 53.6939 383.179 53.1136 383.342C52.5515 383.505 51.9984 383.795 51.4544 384.212L51.536 382.254C51.8261 381.873 52.1616 381.565 52.5424 381.329C52.9232 381.075 53.3675 380.885 53.8752 380.758C54.3829 380.631 54.9813 380.567 55.6704 380.567C57.0123 380.567 58.1365 380.848 59.0432 381.411C59.968 381.973 60.6661 382.725 61.1376 383.668C61.6091 384.593 61.8448 385.627 61.8448 386.769C61.8448 388.002 61.5365 389.099 60.92 390.06C60.3216 391.021 59.4875 391.783 58.4176 392.345C57.3477 392.889 56.1147 393.161 54.7184 393.161ZM51.4544 384.212L49.7408 382.499L50.584 373.849H53.44L52.4608 382.852L51.4544 384.212ZM51.128 376.651L50.584 373.849H60.784V376.651H51.128ZM66.0487 393.161C65.4684 393.161 64.9879 392.971 64.6071 392.59C64.2444 392.191 64.0631 391.71 64.0631 391.148C64.0631 390.568 64.2444 390.087 64.6071 389.707C64.9879 389.326 65.4684 389.135 66.0487 389.135C66.629 389.135 67.1004 389.326 67.4631 389.707C67.8439 390.087 68.0343 390.568 68.0343 391.148C68.0343 391.71 67.8439 392.191 67.4631 392.59C67.1004 392.971 66.629 393.161 66.0487 393.161Z" fill="white"/>
<path d="M123.98 390.389L121.88 386.769L121.08 386.289L117.22 380.609H121.24L123.3 384.129L124.06 384.569L127.98 390.389H123.98ZM117.02 390.389L121.04 384.609L123.02 386.749L120.74 390.389H117.02ZM123.94 386.289L121.96 384.149L124.06 380.609H127.78L123.94 386.289ZM130.021 390.389V379.989C130.021 379.162 130.201 378.422 130.561 377.769C130.921 377.102 131.434 376.569 132.101 376.169C132.781 375.769 133.594 375.569 134.541 375.569C135.247 375.569 135.867 375.689 136.401 375.929C136.934 376.156 137.394 376.462 137.781 376.849L135.601 379.029C135.494 378.909 135.361 378.822 135.201 378.769C135.054 378.702 134.881 378.669 134.681 378.669C134.321 378.669 134.034 378.776 133.821 378.989C133.607 379.202 133.501 379.489 133.501 379.849V390.389H130.021ZM127.941 383.509V380.609H136.261V383.509H127.941ZM137.284 388.449L142.844 382.789C143.11 382.496 143.33 382.236 143.504 382.009C143.677 381.769 143.797 381.549 143.864 381.349C143.944 381.136 143.984 380.916 143.984 380.689C143.984 380.182 143.817 379.782 143.484 379.489C143.164 379.196 142.737 379.049 142.204 379.049C141.697 379.049 141.237 379.196 140.824 379.489C140.41 379.769 139.984 380.242 139.544 380.909L137.204 378.829C137.777 377.896 138.51 377.189 139.404 376.709C140.297 376.216 141.324 375.969 142.484 375.969C143.51 375.969 144.397 376.156 145.144 376.529C145.89 376.902 146.464 377.436 146.864 378.129C147.277 378.809 147.484 379.616 147.484 380.549C147.484 381.109 147.41 381.629 147.264 382.109C147.117 382.576 146.884 383.042 146.564 383.509C146.244 383.962 145.817 384.442 145.284 384.949L141.604 388.529L137.284 388.449ZM137.284 390.389V388.449L140.264 387.409H147.784V390.389H137.284Z" fill="white"/>
<path d="M214.1 384.649V382.089H216.8C217.387 382.089 217.833 381.949 218.14 381.669C218.46 381.376 218.62 380.982 218.62 380.489C218.62 380.009 218.46 379.622 218.14 379.329C217.833 379.022 217.387 378.869 216.8 378.869H214.1V376.209H217.3C218.26 376.209 219.1 376.389 219.82 376.749C220.553 377.109 221.127 377.602 221.54 378.229C221.953 378.856 222.16 379.589 222.16 380.429C222.16 381.269 221.947 382.009 221.52 382.649C221.107 383.276 220.527 383.769 219.78 384.129C219.033 384.476 218.16 384.649 217.16 384.649H214.1ZM211.26 390.389V376.209H214.84V390.389H211.26ZM218.94 390.389L214.82 384.309L218.04 383.529L223.08 390.389H218.94ZM229.714 390.389L227.614 386.769L226.814 386.289L222.954 380.609H226.974L229.034 384.129L229.794 384.569L233.714 390.389H229.714ZM222.754 390.389L226.774 384.609L228.754 386.749L226.474 390.389H222.754ZM229.674 386.289L227.694 384.149L229.794 380.609H233.514L229.674 386.289ZM235.755 390.389V379.989C235.755 379.162 235.935 378.422 236.295 377.769C236.655 377.102 237.168 376.569 237.835 376.169C238.515 375.769 239.328 375.569 240.275 375.569C240.982 375.569 241.602 375.689 242.135 375.929C242.668 376.156 243.128 376.462 243.515 376.849L241.335 379.029C241.228 378.909 241.095 378.822 240.935 378.769C240.788 378.702 240.615 378.669 240.415 378.669C240.055 378.669 239.768 378.776 239.555 378.989C239.342 379.202 239.235 379.489 239.235 379.849V390.389H235.755ZM233.675 383.509V380.609H241.995V383.509H233.675ZM242.938 385.529L247.378 376.209H251.218L246.658 385.529H242.938ZM242.938 387.489V385.529L243.978 384.509H254.458V387.489H242.938ZM249.598 390.389V381.849H253.098V390.389H249.598Z" fill="white"/>
<path d="M55.6432 475.383C54.3739 475.383 53.2315 475.093 52.216 474.513C51.2005 473.914 50.3936 473.116 49.7952 472.119C49.2149 471.122 48.9248 470.016 48.9248 468.801C48.9248 467.06 49.5323 465.301 50.7472 463.524L55.9424 456.071H59.56L54.0112 463.877L52.8688 464.557C53.0501 464.14 53.2768 463.787 53.5488 463.497C53.8389 463.188 54.2107 462.953 54.664 462.789C55.1355 462.626 55.7157 462.545 56.4048 462.545C57.5109 462.545 58.5083 462.808 59.3968 463.333C60.3035 463.841 61.0288 464.557 61.5728 465.482C62.1168 466.389 62.3888 467.459 62.3888 468.692C62.3888 469.925 62.0896 471.049 61.4912 472.065C60.8928 473.08 60.0768 473.887 59.0432 474.485C58.0277 475.084 56.8944 475.383 55.6432 475.383ZM55.6432 472.445C56.3323 472.445 56.9488 472.282 57.4928 471.956C58.0368 471.629 58.4629 471.185 58.7712 470.623C59.0976 470.043 59.2608 469.399 59.2608 468.692C59.2608 467.985 59.0976 467.35 58.7712 466.788C58.4629 466.226 58.0368 465.791 57.4928 465.482C56.9488 465.156 56.3323 464.993 55.6432 464.993C54.9541 464.993 54.3376 465.156 53.7936 465.482C53.2496 465.809 52.8235 466.253 52.5152 466.815C52.2069 467.359 52.0528 467.985 52.0528 468.692C52.0528 469.399 52.2069 470.043 52.5152 470.623C52.8235 471.185 53.2496 471.629 53.7936 471.956C54.3376 472.282 54.9541 472.445 55.6432 472.445ZM67.2174 475.383C66.6372 475.383 66.1566 475.193 65.7758 474.812C65.4132 474.413 65.2318 473.932 65.2318 473.37C65.2318 472.79 65.4132 472.309 65.7758 471.929C66.1566 471.548 66.6372 471.357 67.2174 471.357C67.7977 471.357 68.2692 471.548 68.6318 471.929C69.0126 472.309 69.203 472.79 69.203 473.37C69.203 473.932 69.0126 474.413 68.6318 474.812C68.2692 475.193 67.7977 475.383 67.2174 475.383Z" fill="white"/>
<path d="M121.1 472.611V469.951H124.06C124.62 469.951 125.06 469.798 125.38 469.491C125.713 469.171 125.88 468.758 125.88 468.251C125.88 467.918 125.807 467.624 125.66 467.371C125.513 467.104 125.3 466.904 125.02 466.771C124.753 466.624 124.433 466.551 124.06 466.551H121.1V463.971H123.84C124.307 463.971 124.687 463.858 124.98 463.631C125.287 463.391 125.44 463.024 125.44 462.531C125.44 462.038 125.287 461.678 124.98 461.451C124.687 461.211 124.307 461.091 123.84 461.091H121.1V458.431H124.7C125.58 458.431 126.34 458.598 126.98 458.931C127.633 459.264 128.133 459.711 128.48 460.271C128.827 460.831 129 461.464 129 462.171C129 463.118 128.673 463.904 128.02 464.531C127.38 465.144 126.447 465.524 125.22 465.671V464.471C126.58 464.631 127.62 465.071 128.34 465.791C129.06 466.498 129.42 467.391 129.42 468.471C129.42 469.271 129.22 469.984 128.82 470.611C128.42 471.224 127.853 471.711 127.12 472.071C126.4 472.431 125.547 472.611 124.56 472.611H121.1ZM118.26 472.611V458.431H121.78V472.611H118.26ZM136.988 472.611L134.888 468.991L134.088 468.511L130.228 462.831H134.248L136.308 466.351L137.068 466.791L140.988 472.611H136.988ZM130.028 472.611L134.048 466.831L136.028 468.971L133.748 472.611H130.028ZM136.948 468.511L134.968 466.371L137.068 462.831H140.788L136.948 468.511ZM146.63 472.831C145.59 472.831 144.65 472.611 143.81 472.171C142.983 471.731 142.33 471.124 141.85 470.351C141.37 469.578 141.13 468.704 141.13 467.731C141.13 466.744 141.37 465.864 141.85 465.091C142.343 464.318 143.003 463.711 143.83 463.271C144.67 462.818 145.616 462.591 146.67 462.591C147.43 462.591 148.123 462.718 148.75 462.971C149.376 463.224 149.95 463.604 150.47 464.111L148.27 466.311C148.07 466.111 147.836 465.964 147.57 465.871C147.316 465.764 147.016 465.711 146.67 465.711C146.296 465.711 145.956 465.798 145.65 465.971C145.356 466.131 145.116 466.358 144.93 466.651C144.756 466.944 144.67 467.298 144.67 467.711C144.67 468.111 144.756 468.464 144.93 468.771C145.116 469.064 145.356 469.298 145.65 469.471C145.956 469.644 146.296 469.731 146.67 469.731C147.043 469.731 147.363 469.671 147.63 469.551C147.896 469.431 148.13 469.258 148.33 469.031L150.55 471.231C150.003 471.764 149.41 472.164 148.77 472.431C148.143 472.698 147.43 472.831 146.63 472.831ZM151.229 470.671L156.789 465.011C157.056 464.718 157.276 464.458 157.449 464.231C157.622 463.991 157.742 463.771 157.809 463.571C157.889 463.358 157.929 463.138 157.929 462.911C157.929 462.404 157.762 462.004 157.429 461.711C157.109 461.418 156.682 461.271 156.149 461.271C155.642 461.271 155.182 461.418 154.769 461.711C154.356 461.991 153.929 462.464 153.489 463.131L151.149 461.051C151.722 460.118 152.456 459.411 153.349 458.931C154.242 458.438 155.269 458.191 156.429 458.191C157.456 458.191 158.342 458.378 159.089 458.751C159.836 459.124 160.409 459.658 160.809 460.351C161.222 461.031 161.429 461.838 161.429 462.771C161.429 463.331 161.356 463.851 161.209 464.331C161.062 464.798 160.829 465.264 160.509 465.731C160.189 466.184 159.762 466.664 159.229 467.171L155.549 470.751L151.229 470.671ZM151.229 472.611V470.671L154.209 469.631H161.729V472.611H151.229Z" fill="white"/>
<path d="M213.1 466.871V464.311H215.8C216.387 464.311 216.833 464.171 217.14 463.891C217.46 463.598 217.62 463.204 217.62 462.711C217.62 462.231 217.46 461.844 217.14 461.551C216.833 461.244 216.387 461.091 215.8 461.091H213.1V458.431H216.3C217.26 458.431 218.1 458.611 218.82 458.971C219.553 459.331 220.127 459.824 220.54 460.451C220.953 461.078 221.16 461.811 221.16 462.651C221.16 463.491 220.947 464.231 220.52 464.871C220.107 465.498 219.527 465.991 218.78 466.351C218.033 466.698 217.16 466.871 216.16 466.871H213.1ZM210.26 472.611V458.431H213.84V472.611H210.26ZM217.94 472.611L213.82 466.531L217.04 465.751L222.08 472.611H217.94ZM228.714 472.611L226.614 468.991L225.814 468.511L221.954 462.831H225.974L228.034 466.351L228.794 466.791L232.714 472.611H228.714ZM221.754 472.611L225.774 466.831L227.754 468.971L225.474 472.611H221.754ZM228.674 468.511L226.694 466.371L228.794 462.831H232.514L228.674 468.511ZM238.356 472.831C237.316 472.831 236.376 472.611 235.536 472.171C234.709 471.731 234.056 471.124 233.576 470.351C233.096 469.578 232.856 468.704 232.856 467.731C232.856 466.744 233.096 465.864 233.576 465.091C234.069 464.318 234.729 463.711 235.556 463.271C236.396 462.818 237.343 462.591 238.396 462.591C239.156 462.591 239.849 462.718 240.476 462.971C241.103 463.224 241.676 463.604 242.196 464.111L239.996 466.311C239.796 466.111 239.563 465.964 239.296 465.871C239.043 465.764 238.743 465.711 238.396 465.711C238.023 465.711 237.683 465.798 237.376 465.971C237.083 466.131 236.843 466.358 236.656 466.651C236.483 466.944 236.396 467.298 236.396 467.711C236.396 468.111 236.483 468.464 236.656 468.771C236.843 469.064 237.083 469.298 237.376 469.471C237.683 469.644 238.023 469.731 238.396 469.731C238.769 469.731 239.089 469.671 239.356 469.551C239.623 469.431 239.856 469.258 240.056 469.031L242.276 471.231C241.729 471.764 241.136 472.164 240.496 472.431C239.869 472.698 239.156 472.831 238.356 472.831ZM242.956 470.671L248.516 465.011C248.782 464.718 249.002 464.458 249.176 464.231C249.349 463.991 249.469 463.771 249.536 463.571C249.616 463.358 249.656 463.138 249.656 462.911C249.656 462.404 249.489 462.004 249.156 461.711C248.836 461.418 248.409 461.271 247.876 461.271C247.369 461.271 246.909 461.418 246.496 461.711C246.082 461.991 245.656 462.464 245.216 463.131L242.876 461.051C243.449 460.118 244.182 459.411 245.076 458.931C245.969 458.438 246.996 458.191 248.156 458.191C249.182 458.191 250.069 458.378 250.816 458.751C251.562 459.124 252.136 459.658 252.536 460.351C252.949 461.031 253.156 461.838 253.156 462.771C253.156 463.331 253.082 463.851 252.936 464.331C252.789 464.798 252.556 465.264 252.236 465.731C251.916 466.184 251.489 466.664 250.956 467.171L247.276 470.751L242.956 470.671ZM242.956 472.611V470.671L245.936 469.631H253.456V472.611H242.956Z" fill="white"/>
<path d="M55.6432 557.605C54.3739 557.605 53.2315 557.315 52.216 556.735C51.2005 556.137 50.3936 555.339 49.7952 554.341C49.2149 553.344 48.9248 552.238 48.9248 551.023C48.9248 549.282 49.5323 547.523 50.7472 545.746L55.9424 538.293H59.56L54.0112 546.1L52.8688 546.78C53.0501 546.363 53.2768 546.009 53.5488 545.719C53.8389 545.411 54.2107 545.175 54.664 545.012C55.1355 544.849 55.7157 544.767 56.4048 544.767C57.5109 544.767 58.5083 545.03 59.3968 545.556C60.3035 546.063 61.0288 546.78 61.5728 547.705C62.1168 548.611 62.3888 549.681 62.3888 550.914C62.3888 552.147 62.0896 553.271 61.4912 554.287C60.8928 555.302 60.0768 556.109 59.0432 556.708C58.0277 557.306 56.8944 557.605 55.6432 557.605ZM55.6432 554.668C56.3323 554.668 56.9488 554.505 57.4928 554.178C58.0368 553.852 58.4629 553.407 58.7712 552.845C59.0976 552.265 59.2608 551.621 59.2608 550.914C59.2608 550.207 59.0976 549.572 58.7712 549.01C58.4629 548.448 58.0368 548.013 57.4928 547.705C56.9488 547.378 56.3323 547.215 55.6432 547.215C54.9541 547.215 54.3376 547.378 53.7936 547.705C53.2496 548.031 52.8235 548.475 52.5152 549.037C52.2069 549.581 52.0528 550.207 52.0528 550.914C52.0528 551.621 52.2069 552.265 52.5152 552.845C52.8235 553.407 53.2496 553.852 53.7936 554.178C54.3376 554.505 54.9541 554.668 55.6432 554.668ZM67.2174 557.605C66.6372 557.605 66.1566 557.415 65.7758 557.034C65.4132 556.635 65.2318 556.155 65.2318 555.593C65.2318 555.012 65.4132 554.532 65.7758 554.151C66.1566 553.77 66.6372 553.58 67.2174 553.58C67.7977 553.58 68.2692 553.77 68.6318 554.151C69.0126 554.532 69.203 555.012 69.203 555.593C69.203 556.155 69.0126 556.635 68.6318 557.034C68.2692 557.415 67.7977 557.605 67.2174 557.605Z" fill="white"/>
<path d="M121.1 549.093V546.533H123.8C124.387 546.533 124.833 546.393 125.14 546.113C125.46 545.82 125.62 545.427 125.62 544.933C125.62 544.453 125.46 544.067 125.14 543.773C124.833 543.467 124.387 543.313 123.8 543.313H121.1V540.653H124.3C125.26 540.653 126.1 540.833 126.82 541.193C127.553 541.553 128.127 542.047 128.54 542.673C128.953 543.3 129.16 544.033 129.16 544.873C129.16 545.713 128.947 546.453 128.52 547.093C128.107 547.72 127.527 548.213 126.78 548.573C126.033 548.92 125.16 549.093 124.16 549.093H121.1ZM118.26 554.833V540.653H121.84V554.833H118.26ZM125.94 554.833L121.82 548.753L125.04 547.973L130.08 554.833H125.94ZM132.111 554.833V544.433C132.111 543.607 132.291 542.867 132.651 542.213C133.011 541.547 133.524 541.013 134.191 540.613C134.871 540.213 135.684 540.013 136.631 540.013C137.337 540.013 137.957 540.133 138.491 540.373C139.024 540.6 139.484 540.907 139.871 541.293L137.691 543.473C137.584 543.353 137.451 543.267 137.291 543.213C137.144 543.147 136.971 543.113 136.771 543.113C136.411 543.113 136.124 543.22 135.911 543.433C135.697 543.647 135.591 543.933 135.591 544.293V554.833H132.111ZM130.031 547.953V545.053H138.351V547.953H130.031ZM144.074 555.053C143.1 555.053 142.167 554.887 141.274 554.553C140.394 554.207 139.667 553.72 139.094 553.093L141.374 550.853C141.614 551.2 141.967 551.487 142.434 551.713C142.914 551.927 143.414 552.033 143.934 552.033C144.4 552.033 144.8 551.953 145.134 551.793C145.48 551.62 145.747 551.387 145.934 551.093C146.134 550.787 146.234 550.427 146.234 550.013C146.234 549.6 146.134 549.24 145.934 548.933C145.747 548.627 145.474 548.387 145.114 548.213C144.754 548.04 144.32 547.953 143.814 547.953C143.36 547.953 142.94 548.02 142.554 548.153C142.18 548.273 141.84 548.447 141.534 548.673L141.874 546.393C142.234 546.18 142.554 546 142.834 545.853C143.114 545.707 143.407 545.6 143.714 545.533C144.034 545.467 144.407 545.433 144.834 545.433C145.914 545.433 146.814 545.653 147.534 546.093C148.267 546.52 148.82 547.093 149.194 547.813C149.567 548.52 149.754 549.3 149.754 550.153C149.754 551.113 149.52 551.967 149.054 552.713C148.587 553.447 147.927 554.02 147.074 554.433C146.234 554.847 145.234 555.053 144.074 555.053ZM141.534 548.673L140.134 547.393L140.834 540.653H144.034L143.294 547.173L141.534 548.673ZM141.274 543.633L140.834 540.653H148.974V543.633H141.274Z" fill="white"/>
<path d="M229.86 554.833L224.5 547.433L229.64 540.653H234L228.14 548.013V546.753L234.22 554.833H229.86ZM221.26 554.833V540.653H224.84V554.833H221.26ZM235.814 554.833V544.433C235.814 543.607 235.994 542.867 236.354 542.213C236.714 541.547 237.227 541.013 237.894 540.613C238.574 540.213 239.387 540.013 240.334 540.013C241.04 540.013 241.66 540.133 242.194 540.373C242.727 540.6 243.187 540.907 243.574 541.293L241.394 543.473C241.287 543.353 241.154 543.267 240.994 543.213C240.847 543.147 240.674 543.113 240.474 543.113C240.114 543.113 239.827 543.22 239.614 543.433C239.4 543.647 239.294 543.933 239.294 544.293V554.833H235.814ZM233.734 547.953V545.053H242.054V547.953H233.734ZM248.417 555.053C247.403 555.053 246.49 554.84 245.677 554.413C244.877 553.973 244.237 553.38 243.757 552.633C243.29 551.873 243.057 551.027 243.057 550.093C243.057 548.933 243.457 547.767 244.257 546.593L248.317 540.653H252.317L247.697 547.033L246.377 546.913C246.577 546.593 246.777 546.32 246.977 546.093C247.19 545.853 247.45 545.667 247.757 545.533C248.063 545.4 248.47 545.333 248.977 545.333C249.87 545.333 250.677 545.547 251.397 545.973C252.13 546.387 252.71 546.953 253.137 547.673C253.577 548.38 253.797 549.18 253.797 550.073C253.797 551.02 253.557 551.867 253.077 552.613C252.61 553.36 251.97 553.953 251.157 554.393C250.357 554.833 249.443 555.053 248.417 555.053ZM248.417 552.033C248.803 552.033 249.143 551.947 249.437 551.773C249.73 551.6 249.957 551.36 250.117 551.053C250.29 550.733 250.377 550.38 250.377 549.993C250.377 549.607 250.29 549.26 250.117 548.953C249.957 548.633 249.73 548.387 249.437 548.213C249.143 548.04 248.803 547.953 248.417 547.953C248.043 547.953 247.71 548.047 247.417 548.233C247.123 548.407 246.89 548.647 246.717 548.953C246.557 549.26 246.477 549.607 246.477 549.993C246.477 550.38 246.557 550.733 246.717 551.053C246.89 551.36 247.123 551.6 247.417 551.773C247.71 551.947 248.043 552.033 248.417 552.033Z" fill="white"/>
<path d="M51.4272 639.556L58.3632 622.42H61.464L54.6912 639.556H51.4272ZM48.7072 623.317V620.516H61.464V622.42L60.1312 623.317H48.7072ZM64.3487 639.828C63.7684 639.828 63.2879 639.637 62.9071 639.256C62.5444 638.857 62.3631 638.377 62.3631 637.815C62.3631 637.234 62.5444 636.754 62.9071 636.373C63.2879 635.992 63.7684 635.802 64.3487 635.802C64.929 635.802 65.4004 635.992 65.7631 636.373C66.1439 636.754 66.3343 637.234 66.3343 637.815C66.3343 638.377 66.1439 638.857 65.7631 639.256C65.4004 639.637 64.929 639.828 64.3487 639.828Z" fill="white"/>
<path d="M121.1 631.316V628.756H123.8C124.387 628.756 124.833 628.616 125.14 628.336C125.46 628.042 125.62 627.649 125.62 627.156C125.62 626.676 125.46 626.289 125.14 625.996C124.833 625.689 124.387 625.536 123.8 625.536H121.1V622.876H124.3C125.26 622.876 126.1 623.056 126.82 623.416C127.553 623.776 128.127 624.269 128.54 624.896C128.953 625.522 129.16 626.256 129.16 627.096C129.16 627.936 128.947 628.676 128.52 629.316C128.107 629.942 127.527 630.436 126.78 630.796C126.033 631.142 125.16 631.316 124.16 631.316H121.1ZM118.26 637.056V622.876H121.84V637.056H118.26ZM125.94 637.056L121.82 630.976L125.04 630.196L130.08 637.056H125.94ZM136.714 637.056L134.614 633.436L133.814 632.956L129.954 627.276H133.974L136.034 630.796L136.794 631.236L140.714 637.056H136.714ZM129.754 637.056L133.774 631.276L135.754 633.416L133.474 637.056H129.754ZM136.674 632.956L134.694 630.816L136.794 627.276H140.514L136.674 632.956ZM145.676 641.496C144.596 641.496 143.636 641.309 142.796 640.936C141.969 640.576 141.323 640.062 140.856 639.396L142.956 637.316C143.289 637.676 143.656 637.956 144.056 638.156C144.456 638.369 144.943 638.476 145.516 638.476C146.209 638.476 146.756 638.302 147.156 637.956C147.569 637.622 147.776 637.136 147.776 636.496V633.956L148.336 631.836L147.836 629.736V627.276H151.256V636.376C151.256 637.416 151.009 638.316 150.516 639.076C150.036 639.849 149.376 640.442 148.536 640.856C147.696 641.282 146.743 641.496 145.676 641.496ZM145.516 636.696C144.609 636.696 143.803 636.489 143.096 636.076C142.403 635.649 141.856 635.069 141.456 634.336C141.056 633.602 140.856 632.782 140.856 631.876C140.856 630.969 141.056 630.156 141.456 629.436C141.856 628.716 142.403 628.142 143.096 627.716C143.803 627.289 144.609 627.076 145.516 627.076C146.129 627.076 146.689 627.189 147.196 627.416C147.716 627.629 148.136 627.936 148.456 628.336C148.776 628.722 148.976 629.176 149.056 629.696V634.076C148.976 634.596 148.769 635.056 148.436 635.456C148.116 635.842 147.703 636.149 147.196 636.376C146.689 636.589 146.129 636.696 145.516 636.696ZM146.156 633.676C146.529 633.676 146.849 633.596 147.116 633.436C147.396 633.262 147.609 633.042 147.756 632.776C147.903 632.496 147.976 632.196 147.976 631.876C147.976 631.542 147.903 631.242 147.756 630.976C147.609 630.709 147.403 630.496 147.136 630.336C146.869 630.162 146.549 630.076 146.176 630.076C145.816 630.076 145.496 630.162 145.216 630.336C144.949 630.496 144.743 630.716 144.596 630.996C144.449 631.262 144.376 631.556 144.376 631.876C144.376 632.182 144.449 632.476 144.596 632.756C144.743 633.022 144.949 633.242 145.216 633.416C145.483 633.589 145.796 633.676 146.156 633.676ZM152.614 632.196L157.054 622.876H160.894L156.334 632.196H152.614ZM152.614 634.156V632.196L153.654 631.176H164.134V634.156H152.614ZM159.274 637.056V628.516H162.774V637.056H159.274Z" fill="white"/>
<path d="M236.1 637.256C235.193 637.256 234.387 637.036 233.68 636.596C232.973 636.156 232.42 635.556 232.02 634.796C231.62 634.022 231.42 633.149 231.42 632.176C231.42 631.189 231.62 630.309 232.02 629.536C232.42 628.762 232.973 628.162 233.68 627.736C234.387 627.296 235.193 627.076 236.1 627.076C236.713 627.076 237.273 627.189 237.78 627.416C238.287 627.629 238.7 627.936 239.02 628.336C239.353 628.736 239.553 629.189 239.62 629.696V634.616C239.553 635.136 239.353 635.596 239.02 635.996C238.7 636.382 238.287 636.689 237.78 636.916C237.273 637.142 236.713 637.256 236.1 637.256ZM236.84 634.156C237.413 634.156 237.873 633.969 238.22 633.596C238.58 633.222 238.76 632.742 238.76 632.156C238.76 631.769 238.68 631.429 238.52 631.136C238.36 630.842 238.133 630.609 237.84 630.436C237.56 630.262 237.233 630.176 236.86 630.176C236.487 630.176 236.153 630.262 235.86 630.436C235.58 630.609 235.353 630.849 235.18 631.156C235.02 631.449 234.94 631.782 234.94 632.156C234.94 632.542 235.02 632.889 235.18 633.196C235.34 633.489 235.567 633.722 235.86 633.896C236.153 634.069 236.48 634.156 236.84 634.156ZM238.62 637.056V634.436L239.12 632.036L238.62 629.676V627.276H242.04V637.056H238.62ZM248.171 637.276C247.171 637.276 246.251 637.109 245.411 636.776C244.571 636.429 243.857 635.942 243.271 635.316L245.551 633.076C245.791 633.422 246.144 633.709 246.611 633.936C247.091 634.149 247.591 634.256 248.111 634.256C248.551 634.256 248.937 634.182 249.271 634.036C249.617 633.876 249.884 633.656 250.071 633.376C250.271 633.082 250.371 632.736 250.371 632.336C250.371 631.936 250.271 631.596 250.071 631.316C249.871 631.022 249.584 630.802 249.211 630.656C248.851 630.509 248.417 630.436 247.911 630.436C247.644 630.436 247.364 630.456 247.071 630.496C246.791 630.522 246.564 630.569 246.391 630.636L247.951 628.676C248.377 628.569 248.764 628.482 249.111 628.416C249.471 628.336 249.791 628.296 250.071 628.296C250.791 628.296 251.437 628.469 252.011 628.816C252.584 629.149 253.037 629.629 253.371 630.256C253.704 630.869 253.871 631.596 253.871 632.436C253.871 633.396 253.637 634.242 253.171 634.976C252.704 635.696 252.037 636.262 251.171 636.676C250.317 637.076 249.317 637.276 248.171 637.276ZM246.391 630.636V628.676L249.691 624.816H253.571L250.171 628.676L246.391 630.636ZM244.251 625.856V622.876H253.571V624.816L250.871 625.856H244.251Z" fill="white"/>
<path d="M55.4528 722.05C54.1472 722.05 53.0139 721.814 52.0528 721.343C51.0917 720.871 50.3392 720.218 49.7952 719.384C49.2693 718.532 49.0064 717.571 49.0064 716.501C49.0064 715.649 49.1696 714.869 49.496 714.162C49.8405 713.436 50.3301 712.82 50.9648 712.312C51.6176 711.804 52.3883 711.442 53.2768 711.224L53.1952 712.095C52.4699 711.895 51.8533 711.569 51.3456 711.115C50.856 710.662 50.4843 710.127 50.2304 709.511C49.9765 708.894 49.8496 708.25 49.8496 707.579C49.8496 706.564 50.0853 705.675 50.5568 704.914C51.0464 704.134 51.7173 703.527 52.5696 703.091C53.4219 702.656 54.3829 702.439 55.4528 702.439C56.5408 702.439 57.5019 702.656 58.336 703.091C59.1883 703.527 59.8501 704.134 60.3216 704.914C60.8112 705.675 61.056 706.564 61.056 707.579C61.056 708.25 60.9291 708.894 60.6752 709.511C60.4213 710.127 60.0496 710.662 59.56 711.115C59.0704 711.569 58.4539 711.895 57.7104 712.095L57.6288 711.224C58.5355 711.442 59.3061 711.804 59.9408 712.312C60.5755 712.82 61.056 713.436 61.3824 714.162C61.7269 714.869 61.8992 715.649 61.8992 716.501C61.8992 717.571 61.6363 718.532 61.1104 719.384C60.5845 720.218 59.832 720.871 58.8528 721.343C57.8917 721.814 56.7584 722.05 55.4528 722.05ZM55.4528 719.221C56.1237 719.221 56.7131 719.085 57.2208 718.813C57.7467 718.541 58.1547 718.169 58.4448 717.698C58.7531 717.226 58.9072 716.691 58.9072 716.093C58.9072 715.476 58.7531 714.942 58.4448 714.488C58.1547 714.017 57.7467 713.645 57.2208 713.373C56.7131 713.101 56.1237 712.965 55.4528 712.965C54.7819 712.965 54.1835 713.101 53.6576 713.373C53.1499 713.645 52.7419 714.017 52.4336 714.488C52.1435 714.942 51.9984 715.476 51.9984 716.093C51.9984 716.691 52.1435 717.226 52.4336 717.698C52.7419 718.169 53.1499 718.541 53.6576 718.813C54.1835 719.085 54.7819 719.221 55.4528 719.221ZM55.4528 710.517C56.2507 710.517 56.9035 710.263 57.4112 709.755C57.9189 709.248 58.1728 708.595 58.1728 707.797C58.1728 706.999 57.9189 706.355 57.4112 705.866C56.9035 705.358 56.2507 705.104 55.4528 705.104C54.6731 705.104 54.0203 705.358 53.4944 705.866C52.9867 706.355 52.7328 706.999 52.7328 707.797C52.7328 708.595 52.9867 709.248 53.4944 709.755C54.0203 710.263 54.6731 710.517 55.4528 710.517ZM66.8456 722.05C66.2653 722.05 65.7848 721.859 65.404 721.479C65.0413 721.08 64.86 720.599 64.86 720.037C64.86 719.457 65.0413 718.976 65.404 718.595C65.7848 718.215 66.2653 718.024 66.8456 718.024C67.4258 718.024 67.8973 718.215 68.26 718.595C68.6408 718.976 68.8312 719.457 68.8312 720.037C68.8312 720.599 68.6408 721.08 68.26 721.479C67.8973 721.859 67.4258 722.05 66.8456 722.05Z" fill="white"/>
<path d="M121.1 719.278V716.618H124.06C124.62 716.618 125.06 716.464 125.38 716.158C125.713 715.838 125.88 715.424 125.88 714.918C125.88 714.584 125.807 714.291 125.66 714.038C125.513 713.771 125.3 713.571 125.02 713.438C124.753 713.291 124.433 713.218 124.06 713.218H121.1V710.638H123.84C124.307 710.638 124.687 710.524 124.98 710.298C125.287 710.058 125.44 709.691 125.44 709.198C125.44 708.704 125.287 708.344 124.98 708.118C124.687 707.878 124.307 707.758 123.84 707.758H121.1V705.098H124.7C125.58 705.098 126.34 705.264 126.98 705.598C127.633 705.931 128.133 706.378 128.48 706.938C128.827 707.498 129 708.131 129 708.838C129 709.784 128.673 710.571 128.02 711.198C127.38 711.811 126.447 712.191 125.22 712.338V711.138C126.58 711.298 127.62 711.738 128.34 712.458C129.06 713.164 129.42 714.058 129.42 715.138C129.42 715.938 129.22 716.651 128.82 717.278C128.42 717.891 127.853 718.378 127.12 718.738C126.4 719.098 125.547 719.278 124.56 719.278H121.1ZM118.26 719.278V705.098H121.78V719.278H118.26ZM136.988 719.278L134.888 715.658L134.088 715.178L130.228 709.498H134.248L136.308 713.018L137.068 713.458L140.988 719.278H136.988ZM130.028 719.278L134.048 713.498L136.028 715.638L133.748 719.278H130.028ZM136.948 715.178L134.968 713.038L137.068 709.498H140.788L136.948 715.178ZM141.444 717.338L147.004 711.678C147.271 711.384 147.491 711.124 147.664 710.898C147.837 710.658 147.957 710.438 148.024 710.238C148.104 710.024 148.144 709.804 148.144 709.578C148.144 709.071 147.977 708.671 147.644 708.378C147.324 708.084 146.897 707.938 146.364 707.938C145.857 707.938 145.397 708.084 144.984 708.378C144.571 708.658 144.144 709.131 143.704 709.798L141.364 707.718C141.937 706.784 142.671 706.078 143.564 705.598C144.457 705.104 145.484 704.858 146.644 704.858C147.671 704.858 148.557 705.044 149.304 705.418C150.051 705.791 150.624 706.324 151.024 707.018C151.437 707.698 151.644 708.504 151.644 709.438C151.644 709.998 151.571 710.518 151.424 710.998C151.277 711.464 151.044 711.931 150.724 712.398C150.404 712.851 149.977 713.331 149.444 713.838L145.764 717.418L141.444 717.338ZM141.444 719.278V717.338L144.424 716.298H151.944V719.278H141.444ZM158.387 719.498C157.347 719.498 156.407 719.278 155.567 718.838C154.741 718.398 154.087 717.791 153.607 717.018C153.127 716.244 152.887 715.371 152.887 714.398C152.887 713.411 153.127 712.531 153.607 711.758C154.101 710.984 154.761 710.378 155.587 709.938C156.427 709.484 157.374 709.258 158.427 709.258C159.187 709.258 159.881 709.384 160.507 709.638C161.134 709.891 161.707 710.271 162.227 710.778L160.027 712.978C159.827 712.778 159.594 712.631 159.327 712.538C159.074 712.431 158.774 712.378 158.427 712.378C158.054 712.378 157.714 712.464 157.407 712.638C157.114 712.798 156.874 713.024 156.687 713.318C156.514 713.611 156.427 713.964 156.427 714.378C156.427 714.778 156.514 715.131 156.687 715.438C156.874 715.731 157.114 715.964 157.407 716.138C157.714 716.311 158.054 716.398 158.427 716.398C158.801 716.398 159.121 716.338 159.387 716.218C159.654 716.098 159.887 715.924 160.087 715.698L162.307 717.898C161.761 718.431 161.167 718.831 160.527 719.098C159.901 719.364 159.187 719.498 158.387 719.498Z" fill="white"/>
<path d="M217.86 719.278L212.5 711.878L217.64 705.098H222L216.14 712.458V711.198L222.22 719.278H217.86ZM209.26 719.278V705.098H212.84V719.278H209.26ZM228.671 719.278L226.571 715.658L225.771 715.178L221.911 709.498H225.931L227.991 713.018L228.751 713.458L232.671 719.278H228.671ZM221.711 719.278L225.731 713.498L227.711 715.638L225.431 719.278H221.711ZM228.631 715.178L226.651 713.038L228.751 709.498H232.471L228.631 715.178ZM233.128 717.338L238.688 711.678C238.954 711.384 239.174 711.124 239.348 710.898C239.521 710.658 239.641 710.438 239.708 710.238C239.788 710.024 239.828 709.804 239.828 709.578C239.828 709.071 239.661 708.671 239.328 708.378C239.008 708.084 238.581 707.938 238.048 707.938C237.541 707.938 237.081 708.084 236.668 708.378C236.254 708.658 235.828 709.131 235.388 709.798L233.048 707.718C233.621 706.784 234.354 706.078 235.248 705.598C236.141 705.104 237.168 704.858 238.328 704.858C239.354 704.858 240.241 705.044 240.988 705.418C241.734 705.791 242.308 706.324 242.708 707.018C243.121 707.698 243.328 708.504 243.328 709.438C243.328 709.998 243.254 710.518 243.108 710.998C242.961 711.464 242.728 711.931 242.408 712.398C242.088 712.851 241.661 713.331 241.128 713.838L237.448 717.418L233.128 717.338ZM233.128 719.278V717.338L236.108 716.298H243.628V719.278H233.128ZM250.071 719.498C249.031 719.498 248.091 719.278 247.251 718.838C246.424 718.398 245.771 717.791 245.291 717.018C244.811 716.244 244.571 715.371 244.571 714.398C244.571 713.411 244.811 712.531 245.291 711.758C245.784 710.984 246.444 710.378 247.271 709.938C248.111 709.484 249.058 709.258 250.111 709.258C250.871 709.258 251.564 709.384 252.191 709.638C252.818 709.891 253.391 710.271 253.911 710.778L251.711 712.978C251.511 712.778 251.278 712.631 251.011 712.538C250.758 712.431 250.458 712.378 250.111 712.378C249.738 712.378 249.398 712.464 249.091 712.638C248.798 712.798 248.558 713.024 248.371 713.318C248.198 713.611 248.111 713.964 248.111 714.378C248.111 714.778 248.198 715.131 248.371 715.438C248.558 715.731 248.798 715.964 249.091 716.138C249.398 716.311 249.738 716.398 250.111 716.398C250.484 716.398 250.804 716.338 251.071 716.218C251.338 716.098 251.571 715.924 251.771 715.698L253.991 717.898C253.444 718.431 252.851 718.831 252.211 719.098C251.584 719.364 250.871 719.498 250.071 719.498Z" fill="white"/>
<path d="M51.7264 804L57.3024 796.194L58.4176 795.514C58.2363 795.913 58.0005 796.266 57.7104 796.574C57.4384 796.883 57.0757 797.118 56.6224 797.282C56.1691 797.445 55.5888 797.526 54.8816 797.526C53.7936 797.526 52.7963 797.273 51.8896 796.765C50.9829 796.239 50.2576 795.514 49.7136 794.589C49.1696 793.664 48.8976 792.594 48.8976 791.379C48.8976 790.146 49.1968 789.022 49.7952 788.006C50.4117 786.991 51.2277 786.184 52.2432 785.586C53.2587 784.987 54.392 784.688 55.6432 784.688C56.9125 784.688 58.0549 784.987 59.0704 785.586C60.0859 786.166 60.8837 786.955 61.464 787.952C62.0624 788.931 62.3616 790.037 62.3616 791.27C62.3616 793.011 61.7541 794.77 60.5392 796.547L55.344 804H51.7264ZM55.6432 795.078C56.3323 795.078 56.9488 794.915 57.4928 794.589C58.0368 794.262 58.4629 793.818 58.7712 793.256C59.0795 792.694 59.2336 792.068 59.2336 791.379C59.2336 790.654 59.0795 790.01 58.7712 789.448C58.4629 788.886 58.0368 788.442 57.4928 788.115C56.9488 787.789 56.3323 787.626 55.6432 787.626C54.9541 787.626 54.3376 787.789 53.7936 788.115C53.2496 788.442 52.8144 788.886 52.488 789.448C52.1797 790.01 52.0256 790.654 52.0256 791.379C52.0256 792.086 52.1797 792.721 52.488 793.283C52.8144 793.827 53.2496 794.262 53.7936 794.589C54.3557 794.915 54.9723 795.078 55.6432 795.078ZM65.3581 804.272C64.7778 804.272 64.2973 804.082 63.9165 803.701C63.5538 803.302 63.3725 802.821 63.3725 802.259C63.3725 801.679 63.5538 801.198 63.9165 800.818C64.2973 800.437 64.7778 800.246 65.3581 800.246C65.9383 800.246 66.4098 800.437 66.7725 800.818C67.1533 801.198 67.3437 801.679 67.3437 802.259C67.3437 802.821 67.1533 803.302 66.7725 803.701C66.4098 804.082 65.9383 804.272 65.3581 804.272Z" fill="white"/>
<path d="M123.84 801.7C123.213 801.7 122.633 801.58 122.1 801.34C121.567 801.087 121.127 800.747 120.78 800.32C120.433 799.893 120.22 799.427 120.14 798.92V794.14C120.22 793.633 120.433 793.18 120.78 792.78C121.14 792.38 121.587 792.073 122.12 791.86C122.653 791.633 123.227 791.52 123.84 791.52C124.787 791.52 125.62 791.74 126.34 792.18C127.06 792.607 127.62 793.207 128.02 793.98C128.433 794.753 128.64 795.633 128.64 796.62C128.64 797.593 128.433 798.467 128.02 799.24C127.62 800 127.06 800.6 126.34 801.04C125.62 801.48 124.787 801.7 123.84 801.7ZM118.02 801.5V786.92H121.5V794.12L120.92 796.48L121.42 798.88V801.5H118.02ZM123.22 798.6C123.593 798.6 123.92 798.513 124.2 798.34C124.493 798.167 124.72 797.933 124.88 797.64C125.04 797.333 125.12 796.987 125.12 796.6C125.12 796.227 125.04 795.893 124.88 795.6C124.72 795.293 124.493 795.053 124.2 794.88C123.907 794.707 123.573 794.62 123.2 794.62C122.827 794.62 122.493 794.707 122.2 794.88C121.92 795.053 121.7 795.287 121.54 795.58C121.38 795.873 121.3 796.213 121.3 796.6C121.3 797 121.38 797.353 121.54 797.66C121.7 797.953 121.927 798.187 122.22 798.36C122.513 798.52 122.847 798.6 123.22 798.6ZM129.411 796.64L133.851 787.32H137.691L133.131 796.64H129.411ZM129.411 798.6V796.64L130.451 795.62H140.931V798.6H129.411ZM136.071 801.5V792.96H139.571V801.5H136.071Z" fill="white"/>
<path d="M197.16 801.76C196.067 801.76 195.06 801.573 194.14 801.2C193.22 800.827 192.413 800.307 191.72 799.64C191.04 798.973 190.507 798.193 190.12 797.3C189.747 796.393 189.56 795.42 189.56 794.38C189.56 793.34 189.747 792.38 190.12 791.5C190.493 790.607 191.02 789.827 191.7 789.16C192.38 788.493 193.18 787.98 194.1 787.62C195.02 787.247 196.027 787.06 197.12 787.06C198.213 787.06 199.22 787.247 200.14 787.62C201.06 787.98 201.86 788.493 202.54 789.16C203.22 789.827 203.747 790.607 204.12 791.5C204.507 792.393 204.7 793.36 204.7 794.4C204.7 795.44 204.507 796.407 204.12 797.3C203.747 798.193 203.22 798.98 202.54 799.66C201.86 800.327 201.06 800.847 200.14 801.22C199.233 801.58 198.24 801.76 197.16 801.76ZM203.4 802.72L196.64 795.96L198.64 793.98L205.38 800.72L203.4 802.72ZM197.12 798.56C197.92 798.56 198.613 798.387 199.2 798.04C199.787 797.693 200.24 797.207 200.56 796.58C200.88 795.953 201.04 795.22 201.04 794.38C201.04 793.767 200.947 793.207 200.76 792.7C200.587 792.193 200.327 791.76 199.98 791.4C199.633 791.027 199.22 790.74 198.74 790.54C198.26 790.34 197.72 790.24 197.12 790.24C196.333 790.24 195.64 790.413 195.04 790.76C194.453 791.093 194 791.573 193.68 792.2C193.36 792.827 193.2 793.553 193.2 794.38C193.2 795.02 193.293 795.6 193.48 796.12C193.667 796.627 193.927 797.067 194.26 797.44C194.607 797.8 195.02 798.08 195.5 798.28C195.993 798.467 196.533 798.56 197.12 798.56ZM212.367 801.5L210.267 797.88L209.467 797.4L205.607 791.72H209.627L211.687 795.24L212.447 795.68L216.367 801.5H212.367ZM205.407 801.5L209.427 795.72L211.407 797.86L209.127 801.5H205.407ZM212.327 797.4L210.347 795.26L212.447 791.72H216.167L212.327 797.4ZM223.223 801.7C222.596 801.7 222.016 801.58 221.483 801.34C220.949 801.087 220.509 800.747 220.163 800.32C219.816 799.893 219.603 799.427 219.523 798.92V794.14C219.603 793.633 219.816 793.18 220.163 792.78C220.523 792.38 220.969 792.073 221.503 791.86C222.036 791.633 222.609 791.52 223.223 791.52C224.169 791.52 225.003 791.74 225.723 792.18C226.443 792.607 227.003 793.207 227.403 793.98C227.816 794.753 228.023 795.633 228.023 796.62C228.023 797.593 227.816 798.467 227.403 799.24C227.003 800 226.443 800.6 225.723 801.04C225.003 801.48 224.169 801.7 223.223 801.7ZM217.403 801.5V786.92H220.883V794.12L220.303 796.48L220.803 798.88V801.5H217.403ZM222.603 798.6C222.976 798.6 223.303 798.513 223.583 798.34C223.876 798.167 224.103 797.933 224.263 797.64C224.423 797.333 224.503 796.987 224.503 796.6C224.503 796.227 224.423 795.893 224.263 795.6C224.103 795.293 223.876 795.053 223.583 794.88C223.289 794.707 222.956 794.62 222.583 794.62C222.209 794.62 221.876 794.707 221.583 794.88C221.303 795.053 221.083 795.287 220.923 795.58C220.763 795.873 220.683 796.213 220.683 796.6C220.683 797 220.763 797.353 220.923 797.66C221.083 797.953 221.309 798.187 221.603 798.36C221.896 798.52 222.229 798.6 222.603 798.6ZM228.794 796.64L233.234 787.32H237.074L232.514 796.64H228.794ZM228.794 798.6V796.64L229.834 795.62H240.314V798.6H228.794ZM235.454 801.5V792.96H238.954V801.5H235.454ZM247.059 801.5L249.479 787.32H252.279L249.859 801.5H247.059ZM241.319 797.56V795.16H252.839V797.56H241.319ZM242.459 801.5L244.879 787.32H247.659L245.259 801.5H242.459ZM242.019 793.36V790.98H253.539V793.36H242.019Z" fill="white"/>
</svg>
