<svg width="632" height="632" viewBox="0 0 632 632" fill="none" xmlns="http://www.w3.org/2000/svg">
<g clip-path="url(#clip0_53_109)">
<rect width="79" height="79" fill="#B5D78A"/>
<rect x="79" width="79" height="79" fill="#5D7C36"/>
<rect x="158" width="79" height="79" fill="#B5D78A"/>
<rect x="237" width="79" height="79" fill="#5D7C36"/>
<rect x="316" width="79" height="79" fill="#B5D78A"/>
<rect x="395" width="79" height="79" fill="#5D7C36"/>
<rect x="474" width="79" height="79" fill="#B5D78A"/>
<rect x="553" width="79" height="79" fill="#5D7C36"/>
<rect x="632" y="158" width="79" height="79" transform="rotate(-180 632 158)" fill="#B5D78A"/>
<rect x="553" y="158" width="79" height="79" transform="rotate(-180 553 158)" fill="#5D7C36"/>
<rect x="474" y="158" width="79" height="79" transform="rotate(-180 474 158)" fill="#B5D78A"/>
<rect x="395" y="158" width="79" height="79" transform="rotate(-180 395 158)" fill="#5D7C36"/>
<rect x="316" y="158" width="79" height="79" transform="rotate(-180 316 158)" fill="#B5D78A"/>
<rect x="237" y="158" width="79" height="79" transform="rotate(-180 237 158)" fill="#5D7C36"/>
<rect x="158" y="158" width="79" height="79" transform="rotate(-180 158 158)" fill="#B5D78A"/>
<rect x="79" y="158" width="79" height="79" transform="rotate(-180 79 158)" fill="#5D7C36"/>
<rect y="158" width="79" height="79" fill="#B5D78A"/>
<rect x="79" y="158" width="79" height="79" fill="#5D7C36"/>
<rect x="158" y="158" width="79" height="79" fill="#B5D78A"/>
<rect x="237" y="158" width="79" height="79" fill="#5D7C36"/>
<rect x="316" y="158" width="79" height="79" fill="#B5D78A"/>
<rect x="395" y="158" width="79" height="79" fill="#5D7C36"/>
<rect x="474" y="158" width="79" height="79" fill="#B5D78A"/>
<rect x="553" y="158" width="79" height="79" fill="#5D7C36"/>
<rect x="632" y="316" width="79" height="79" transform="rotate(-180 632 316)" fill="#B5D78A"/>
<rect x="553" y="316" width="79" height="79" transform="rotate(-180 553 316)" fill="#5D7C36"/>
<rect x="474" y="316" width="79" height="79" transform="rotate(-180 474 316)" fill="#B5D78A"/>
<rect x="395" y="316" width="79" height="79" transform="rotate(-180 395 316)" fill="#5D7C36"/>
<rect x="316" y="316" width="79" height="79" transform="rotate(-180 316 316)" fill="#B5D78A"/>
<rect x="237" y="316" width="79" height="79" transform="rotate(-180 237 316)" fill="#5D7C36"/>
<rect x="158" y="316" width="79" height="79" transform="rotate(-180 158 316)" fill="#B5D78A"/>
<rect x="79" y="316" width="79" height="79" transform="rotate(-180 79 316)" fill="#5D7C36"/>
<rect y="316" width="79" height="79" fill="#B5D78A"/>
<rect x="79" y="316" width="79" height="79" fill="#5D7C36"/>
<rect x="158" y="316" width="79" height="79" fill="#B5D78A"/>
<rect x="237" y="316" width="79" height="79" fill="#5D7C36"/>
<rect x="316" y="316" width="79" height="79" fill="#B5D78A"/>
<rect x="395" y="316" width="79" height="79" fill="#5D7C36"/>
<rect x="474" y="316" width="79" height="79" fill="#B5D78A"/>
<rect x="553" y="316" width="79" height="79" fill="#5D7C36"/>
<rect x="632" y="474" width="79" height="79" transform="rotate(-180 632 474)" fill="#B5D78A"/>
<rect x="553" y="474" width="79" height="79" transform="rotate(-180 553 474)" fill="#5D7C36"/>
<rect x="474" y="474" width="79" height="79" transform="rotate(-180 474 474)" fill="#B5D78A"/>
<rect x="395" y="474" width="79" height="79" transform="rotate(-180 395 474)" fill="#5D7C36"/>
<rect x="316" y="474" width="79" height="79" transform="rotate(-180 316 474)" fill="#B5D78A"/>
<rect x="237" y="474" width="79" height="79" transform="rotate(-180 237 474)" fill="#5D7C36"/>
<rect x="158" y="474" width="79" height="79" transform="rotate(-180 158 474)" fill="#B5D78A"/>
<rect x="79" y="474" width="79" height="79" transform="rotate(-180 79 474)" fill="#5D7C36"/>
<rect y="474" width="79" height="79" fill="#B5D78A"/>
<rect x="79" y="474" width="79" height="79" fill="#5D7C36"/>
<rect x="158" y="474" width="79" height="79" fill="#B5D78A"/>
<rect x="237" y="474" width="79" height="79" fill="#5D7C36"/>
<rect x="316" y="474" width="79" height="79" fill="#B5D78A"/>
<rect x="395" y="474" width="79" height="79" fill="#5D7C36"/>
<rect x="474" y="474" width="79" height="79" fill="#B5D78A"/>
<rect x="553" y="474" width="79" height="79" fill="#5D7C36"/>
<rect x="632" y="632" width="79" height="79" transform="rotate(-180 632 632)" fill="#B5D78A"/>
<rect x="553" y="632" width="79" height="79" transform="rotate(-180 553 632)" fill="#5D7C36"/>
<rect x="474" y="632" width="79" height="79" transform="rotate(-180 474 632)" fill="#B5D78A"/>
<rect x="395" y="632" width="79" height="79" transform="rotate(-180 395 632)" fill="#5D7C36"/>
<rect x="316" y="632" width="79" height="79" transform="rotate(-180 316 632)" fill="#B5D78A"/>
<rect x="237" y="632" width="79" height="79" transform="rotate(-180 237 632)" fill="#5D7C36"/>
<rect x="158" y="632" width="79" height="79" transform="rotate(-180 158 632)" fill="#B5D78A"/>
<rect x="79" y="632" width="79" height="79" transform="rotate(-180 79 632)" fill="#5D7C36"/>
<path d="M61.7959 622.855C60.8534 622.855 60.0149 622.627 59.2804 622.169C58.5458 621.712 57.9706 621.088 57.5549 620.298C57.1391 619.494 56.9312 618.587 56.9312 617.575C56.9312 616.549 57.1391 615.634 57.5549 614.831C57.9706 614.027 58.5458 613.403 59.2804 612.96C60.0149 612.502 60.8534 612.273 61.7959 612.273C62.4334 612.273 63.0156 612.391 63.5422 612.627C64.0689 612.849 64.4985 613.167 64.8312 613.583C65.1777 613.999 65.3856 614.47 65.4549 614.997V620.111C65.3856 620.652 65.1777 621.13 64.8312 621.546C64.4985 621.947 64.0689 622.266 63.5422 622.502C63.0156 622.737 62.4334 622.855 61.7959 622.855ZM62.5651 619.633C63.1611 619.633 63.6392 619.439 63.9996 619.051C64.3738 618.663 64.5609 618.164 64.5609 617.554C64.5609 617.152 64.4777 616.799 64.3114 616.494C64.1451 616.189 63.9095 615.946 63.6046 615.766C63.3135 615.586 62.974 615.496 62.5859 615.496C62.1978 615.496 61.8513 615.586 61.5464 615.766C61.2554 615.946 61.0198 616.196 60.8396 616.515C60.6733 616.819 60.5901 617.166 60.5901 617.554C60.5901 617.956 60.6733 618.316 60.8396 618.635C61.0059 618.94 61.2415 619.182 61.5464 619.363C61.8513 619.543 62.1909 619.633 62.5651 619.633ZM64.4154 622.647V619.924L64.9351 617.429L64.4154 614.976V612.481H67.9704V622.647H64.4154Z" fill="white" fill-opacity="0.75"/>
<path d="M13.1182 574V559.26H16.798V574H13.1182ZM10.3116 562.358V559.26H16.5901V562.358H10.3116Z" fill="white" fill-opacity="0.75"/>
<path d="M10.4364 492.983L16.2158 487.1C16.493 486.795 16.7217 486.525 16.9019 486.289C17.0821 486.04 17.2068 485.811 17.2761 485.603C17.3593 485.381 17.4008 485.153 17.4008 484.917C17.4008 484.39 17.2276 483.975 16.8811 483.67C16.5485 483.365 16.105 483.212 15.5506 483.212C15.0239 483.212 14.5458 483.365 14.1161 483.67C13.6865 483.961 13.243 484.453 12.7856 485.146L10.3532 482.984C10.9492 482.014 11.7115 481.279 12.6401 480.78C13.5687 480.267 14.6358 480.011 15.8416 480.011C16.9088 480.011 17.8305 480.205 18.6066 480.593C19.3828 480.981 19.9787 481.535 20.3945 482.256C20.8242 482.963 21.039 483.801 21.039 484.772C21.039 485.354 20.9628 485.894 20.8103 486.393C20.6579 486.878 20.4153 487.363 20.0827 487.848C19.7501 488.32 19.3065 488.819 18.7522 489.345L14.9269 493.067L10.4364 492.983ZM10.4364 495V492.983L13.534 491.902H21.3508V495H10.4364Z" fill="white" fill-opacity="0.75"/>
<path d="M15.3011 416.229C14.2616 416.229 13.3053 416.055 12.4322 415.709C11.559 415.349 10.8175 414.843 10.2077 414.191L12.5777 411.863C12.8272 412.223 13.1944 412.521 13.6795 412.757C14.1785 412.979 14.6982 413.089 15.2387 413.089C15.6961 413.089 16.098 413.013 16.4445 412.861C16.8049 412.694 17.0821 412.466 17.2761 412.175C17.484 411.87 17.588 411.509 17.588 411.094C17.588 410.678 17.484 410.324 17.2761 410.033C17.0682 409.729 16.7702 409.5 16.3822 409.347C16.008 409.195 15.5575 409.119 15.0308 409.119C14.7537 409.119 14.4626 409.139 14.1577 409.181C13.8666 409.209 13.631 409.257 13.4508 409.327L15.0724 407.289C15.5159 407.178 15.9179 407.088 16.2782 407.019C16.6524 406.936 16.9851 406.894 17.2761 406.894C18.0245 406.894 18.6967 407.074 19.2927 407.435C19.8887 407.781 20.3599 408.28 20.7064 408.932C21.0529 409.569 21.2261 410.324 21.2261 411.198C21.2261 412.196 20.9836 413.076 20.4985 413.838C20.0134 414.586 19.3204 415.175 18.4195 415.605C17.5325 416.021 16.493 416.229 15.3011 416.229ZM13.4508 409.327V407.289L16.8811 403.277H20.9143L17.3801 407.289L13.4508 409.327ZM11.2264 404.358V401.26H20.9143V403.277L18.1077 404.358H11.2264Z" fill="white" fill-opacity="0.75"/>
<path d="M10.3532 331.948L14.9685 322.26H18.9601L14.2201 331.948H10.3532ZM10.3532 333.986V331.948L11.4343 330.888H22.328V333.986H10.3532ZM17.2761 337V328.123H20.9143V337H17.2761Z" fill="white" fill-opacity="0.75"/>
<path d="M15.3219 258.229C14.3101 258.229 13.34 258.055 12.4114 257.709C11.4966 257.349 10.7413 256.843 10.1453 256.191L12.5153 253.863C12.7648 254.223 13.1321 254.521 13.6172 254.757C14.1161 254.979 14.6358 255.089 15.1764 255.089C15.6615 255.089 16.0773 255.006 16.4237 254.84C16.7841 254.66 17.0613 254.417 17.2553 254.112C17.4632 253.794 17.5672 253.419 17.5672 252.99C17.5672 252.56 17.4632 252.186 17.2553 251.867C17.0613 251.548 16.7772 251.299 16.403 251.119C16.0287 250.939 15.5783 250.848 15.0516 250.848C14.5804 250.848 14.1438 250.918 13.7419 251.056C13.3538 251.181 13.0004 251.361 12.6816 251.597L13.0351 249.227C13.4093 249.005 13.7419 248.818 14.033 248.666C14.324 248.513 14.6289 248.402 14.9477 248.333C15.2803 248.264 15.6684 248.229 16.1119 248.229C17.2345 248.229 18.1701 248.458 18.9185 248.915C19.6808 249.359 20.2559 249.954 20.644 250.703C21.0321 251.437 21.2261 252.248 21.2261 253.135C21.2261 254.133 20.9836 255.02 20.4985 255.796C20.0134 256.559 19.3273 257.155 18.4403 257.584C17.5672 258.014 16.5277 258.229 15.3219 258.229ZM12.6816 251.597L11.2264 250.266L11.954 243.26H15.2803L14.5111 250.038L12.6816 251.597ZM12.4114 246.358L11.954 243.26H20.4153V246.358H12.4114Z" fill="white" fill-opacity="0.75"/>
<path d="M15.9872 179.229C14.9338 179.229 13.9844 179.007 13.139 178.563C12.3074 178.106 11.6422 177.489 11.1432 176.713C10.6581 175.923 10.4156 175.043 10.4156 174.073C10.4156 172.867 10.8314 171.654 11.663 170.435L15.8832 164.26H20.0411L15.2387 170.892L13.8666 170.767C14.0745 170.435 14.2824 170.151 14.4903 169.915C14.7121 169.666 14.9823 169.471 15.3011 169.333C15.6199 169.194 16.0426 169.125 16.5693 169.125C17.4979 169.125 18.3364 169.347 19.0848 169.79C19.8471 170.22 20.45 170.809 20.8935 171.557C21.3508 172.292 21.5795 173.124 21.5795 174.052C21.5795 175.036 21.3301 175.916 20.8311 176.692C20.346 177.469 19.6808 178.085 18.8353 178.543C18.0037 179 17.0544 179.229 15.9872 179.229ZM15.9872 176.089C16.3891 176.089 16.7425 175.999 17.0474 175.819C17.3523 175.639 17.588 175.39 17.7543 175.071C17.9344 174.738 18.0245 174.371 18.0245 173.969C18.0245 173.567 17.9344 173.207 17.7543 172.888C17.588 172.555 17.3523 172.299 17.0474 172.119C16.7425 171.939 16.3891 171.848 15.9872 171.848C15.5991 171.848 15.2526 171.945 14.9477 172.139C14.6428 172.32 14.4002 172.569 14.2201 172.888C14.0537 173.207 13.9706 173.567 13.9706 173.969C13.9706 174.371 14.0537 174.738 14.2201 175.071C14.4002 175.39 14.6428 175.639 14.9477 175.819C15.2526 175.999 15.5991 176.089 15.9872 176.089Z" fill="white" fill-opacity="0.75"/>
<path d="M12.2243 100L17.0474 87.2976H20.644L16.0287 100H12.2243ZM10.3116 88.3579V85.2603H20.644V87.2976L19.5214 88.3579H10.3116Z" fill="white" fill-opacity="0.75"/>
<path d="M15.904 21.2287C14.8091 21.2287 13.8528 21.0416 13.0351 20.6674C12.2312 20.2932 11.6075 19.7804 11.164 19.1289C10.7205 18.4775 10.4987 17.7291 10.4987 16.8837C10.4987 16.1768 10.6304 15.5393 10.8937 14.9711C11.1709 14.4028 11.5521 13.9385 12.0372 13.5782C12.5361 13.2039 13.1044 12.9545 13.7419 12.8297L13.6795 13.5158C13.1251 13.4049 12.6539 13.1832 12.2658 12.8505C11.8778 12.504 11.5798 12.0882 11.3719 11.6032C11.164 11.1042 11.0601 10.5914 11.0601 10.0647C11.0601 9.27474 11.261 8.57482 11.663 7.965C12.0787 7.35517 12.647 6.87702 13.3677 6.53052C14.1022 6.18403 14.9477 6.01079 15.904 6.01079C16.8603 6.01079 17.6988 6.18403 18.4195 6.53052C19.1402 6.87702 19.7015 7.35517 20.1035 7.965C20.5193 8.57482 20.7272 9.27474 20.7272 10.0647C20.7272 10.5914 20.6232 11.1042 20.4153 11.6032C20.2074 12.0882 19.9094 12.504 19.5214 12.8505C19.1333 13.1832 18.6621 13.4049 18.1077 13.5158L18.0245 12.8297C18.6759 12.9545 19.2442 13.2039 19.7293 13.5782C20.2282 13.9385 20.6094 14.4028 20.8727 14.9711C21.1499 15.5393 21.2885 16.1768 21.2885 16.8837C21.2885 17.7291 21.0667 18.4775 20.6232 19.1289C20.1797 19.7804 19.5491 20.2932 18.7314 20.6674C17.9275 21.0416 16.9851 21.2287 15.904 21.2287ZM15.904 18.1311C16.2644 18.1311 16.5831 18.0548 16.8603 17.9024C17.1514 17.7499 17.3731 17.542 17.5256 17.2787C17.6919 17.0015 17.7751 16.6896 17.7751 16.3432C17.7751 15.9967 17.6919 15.6918 17.5256 15.4284C17.3731 15.1651 17.1514 14.9572 16.8603 14.8047C16.5831 14.6384 16.2644 14.5553 15.904 14.5553C15.5298 14.5553 15.2041 14.6384 14.9269 14.8047C14.6497 14.9572 14.428 15.1651 14.2616 15.4284C14.0953 15.6918 14.0122 15.9967 14.0122 16.3432C14.0122 16.6896 14.0953 17.0015 14.2616 17.2787C14.428 17.542 14.6497 17.7499 14.9269 17.9024C15.2041 18.0548 15.5298 18.1311 15.904 18.1311ZM15.904 11.915C16.3198 11.915 16.6594 11.7833 16.9227 11.52C17.1999 11.2567 17.3385 10.9171 17.3385 10.5013C17.3385 10.0717 17.1999 9.71824 16.9227 9.44105C16.6594 9.16386 16.3198 9.02526 15.904 9.02526C15.4744 9.02526 15.1209 9.16386 14.8437 9.44105C14.5804 9.70439 14.4487 10.0439 14.4487 10.4597C14.4487 10.8755 14.5804 11.222 14.8437 11.4992C15.1209 11.7764 15.4744 11.915 15.904 11.915Z" fill="white" fill-opacity="0.75"/>
<path d="M142.605 622.855C141.953 622.855 141.35 622.731 140.796 622.481C140.242 622.218 139.784 621.864 139.424 621.421C139.063 620.977 138.842 620.492 138.759 619.966V614.997C138.842 614.47 139.063 613.999 139.424 613.583C139.798 613.167 140.262 612.849 140.817 612.627C141.371 612.391 141.967 612.273 142.605 612.273C143.589 612.273 144.455 612.502 145.203 612.96C145.952 613.403 146.534 614.027 146.95 614.831C147.379 615.634 147.594 616.549 147.594 617.575C147.594 618.587 147.379 619.494 146.95 620.298C146.534 621.088 145.952 621.712 145.203 622.169C144.455 622.627 143.589 622.855 142.605 622.855ZM136.555 622.647V607.492H140.172V614.976L139.569 617.429L140.089 619.924V622.647H136.555ZM141.96 619.633C142.348 619.633 142.688 619.543 142.979 619.363C143.284 619.182 143.519 618.94 143.686 618.635C143.852 618.316 143.935 617.956 143.935 617.554C143.935 617.166 143.852 616.819 143.686 616.515C143.519 616.196 143.284 615.946 142.979 615.766C142.674 615.586 142.327 615.496 141.939 615.496C141.551 615.496 141.205 615.586 140.9 615.766C140.609 615.946 140.38 616.189 140.214 616.494C140.047 616.799 139.964 617.152 139.964 617.554C139.964 617.97 140.047 618.337 140.214 618.656C140.38 618.961 140.616 619.203 140.921 619.383C141.226 619.55 141.572 619.633 141.96 619.633Z" fill="white" fill-opacity="0.75"/>
<path d="M222.697 622.876C221.616 622.876 220.639 622.647 219.766 622.19C218.907 621.733 218.228 621.102 217.729 620.298C217.23 619.494 216.98 618.587 216.98 617.575C216.98 616.549 217.23 615.634 217.729 614.831C218.241 614.027 218.928 613.396 219.787 612.939C220.66 612.467 221.644 612.232 222.739 612.232C223.529 612.232 224.25 612.364 224.901 612.627C225.552 612.89 226.148 613.285 226.689 613.812L224.402 616.099C224.194 615.891 223.952 615.738 223.674 615.641C223.411 615.53 223.099 615.475 222.739 615.475C222.351 615.475 221.997 615.565 221.679 615.745C221.374 615.912 221.124 616.147 220.93 616.452C220.75 616.757 220.66 617.124 220.66 617.554C220.66 617.97 220.75 618.337 220.93 618.656C221.124 618.961 221.374 619.203 221.679 619.383C221.997 619.564 222.351 619.654 222.739 619.654C223.127 619.654 223.46 619.591 223.737 619.467C224.014 619.342 224.257 619.162 224.464 618.926L226.772 621.213C226.204 621.767 225.587 622.183 224.922 622.46C224.27 622.737 223.529 622.876 222.697 622.876Z" fill="white" fill-opacity="0.75"/>
<path d="M298.921 622.855C297.937 622.855 297.07 622.627 296.322 622.169C295.574 621.712 294.984 621.088 294.555 620.298C294.139 619.494 293.931 618.587 293.931 617.575C293.931 616.549 294.139 615.634 294.555 614.831C294.984 614.027 295.567 613.403 296.301 612.96C297.05 612.502 297.923 612.273 298.921 612.273C299.558 612.273 300.154 612.391 300.709 612.627C301.263 612.849 301.727 613.167 302.101 613.583C302.476 613.999 302.697 614.47 302.767 614.997V619.966C302.697 620.492 302.476 620.977 302.101 621.421C301.727 621.864 301.263 622.218 300.709 622.481C300.154 622.731 299.558 622.855 298.921 622.855ZM299.565 619.633C299.967 619.633 300.314 619.55 300.605 619.383C300.896 619.203 301.124 618.961 301.291 618.656C301.471 618.337 301.561 617.97 301.561 617.554C301.561 617.152 301.478 616.799 301.311 616.494C301.145 616.189 300.909 615.946 300.605 615.766C300.314 615.586 299.974 615.496 299.586 615.496C299.198 615.496 298.851 615.586 298.546 615.766C298.255 615.946 298.02 616.196 297.84 616.515C297.673 616.819 297.59 617.166 297.59 617.554C297.59 617.956 297.673 618.316 297.84 618.635C298.006 618.94 298.242 619.182 298.546 619.363C298.851 619.543 299.191 619.633 299.565 619.633ZM304.97 622.647H301.415V619.924L301.935 617.429L301.353 614.976V607.492H304.97V622.647Z" fill="white" fill-opacity="0.75"/>
<path d="M379.705 622.876C378.568 622.876 377.564 622.654 376.69 622.211C375.817 621.753 375.131 621.123 374.632 620.319C374.133 619.515 373.884 618.593 373.884 617.554C373.884 616.528 374.126 615.621 374.612 614.831C375.097 614.027 375.755 613.396 376.587 612.939C377.432 612.467 378.381 612.232 379.435 612.232C380.46 612.232 381.368 612.454 382.158 612.897C382.962 613.327 383.586 613.93 384.029 614.706C384.487 615.468 384.715 616.341 384.715 617.325C384.715 617.533 384.701 617.748 384.674 617.97C384.66 618.178 384.618 618.42 384.549 618.697L375.589 618.739V616.411L383.114 616.348L381.493 617.367C381.479 616.799 381.396 616.334 381.243 615.974C381.091 615.6 380.869 615.316 380.578 615.122C380.287 614.928 379.92 614.831 379.476 614.831C379.019 614.831 378.624 614.941 378.291 615.163C377.959 615.385 377.702 615.697 377.522 616.099C377.342 616.501 377.252 616.986 377.252 617.554C377.252 618.136 377.349 618.635 377.543 619.051C377.737 619.453 378.014 619.758 378.374 619.966C378.735 620.173 379.178 620.277 379.705 620.277C380.204 620.277 380.64 620.194 381.015 620.028C381.403 619.862 381.749 619.605 382.054 619.259L383.946 621.151C383.447 621.719 382.837 622.148 382.117 622.44C381.41 622.731 380.606 622.876 379.705 622.876Z" fill="white" fill-opacity="0.75"/>
<path d="M456.929 622.647V611.837C456.929 610.978 457.116 610.208 457.49 609.529C457.864 608.836 458.398 608.282 459.091 607.866C459.798 607.45 460.643 607.242 461.627 607.242C462.362 607.242 463.006 607.367 463.561 607.617C464.115 607.852 464.593 608.171 464.995 608.573L462.729 610.839C462.618 610.714 462.48 610.624 462.313 610.569C462.161 610.499 461.981 610.465 461.773 610.465C461.398 610.465 461.101 610.576 460.879 610.797C460.657 611.019 460.546 611.317 460.546 611.691V622.647H456.929ZM454.767 615.496V612.481H463.415V615.496H454.767Z" fill="white" fill-opacity="0.75"/>
<path d="M536.184 627.263C535.061 627.263 534.063 627.069 533.19 626.681C532.331 626.306 531.658 625.773 531.173 625.08L533.356 622.918C533.703 623.292 534.084 623.583 534.5 623.791C534.915 624.013 535.421 624.123 536.017 624.123C536.738 624.123 537.306 623.943 537.722 623.583C538.152 623.236 538.366 622.731 538.366 622.065V619.425L538.949 617.221L538.429 615.038V612.481H541.984V621.941C541.984 623.022 541.727 623.957 541.215 624.747C540.716 625.551 540.03 626.168 539.156 626.597C538.283 627.041 537.292 627.263 536.184 627.263ZM536.017 622.273C535.075 622.273 534.236 622.058 533.502 621.629C532.781 621.185 532.213 620.582 531.797 619.82C531.381 619.058 531.173 618.205 531.173 617.263C531.173 616.32 531.381 615.475 531.797 614.727C532.213 613.978 532.781 613.382 533.502 612.939C534.236 612.495 535.075 612.273 536.017 612.273C536.655 612.273 537.237 612.391 537.764 612.627C538.304 612.849 538.741 613.167 539.073 613.583C539.406 613.985 539.614 614.456 539.697 614.997V619.55C539.614 620.09 539.399 620.568 539.053 620.984C538.72 621.386 538.29 621.705 537.764 621.941C537.237 622.162 536.655 622.273 536.017 622.273ZM536.683 619.134C537.071 619.134 537.403 619.051 537.68 618.885C537.971 618.704 538.193 618.476 538.346 618.198C538.498 617.907 538.574 617.596 538.574 617.263C538.574 616.916 538.498 616.605 538.346 616.327C538.193 616.05 537.978 615.828 537.701 615.662C537.424 615.482 537.091 615.392 536.703 615.392C536.329 615.392 535.996 615.482 535.705 615.662C535.428 615.828 535.213 616.057 535.061 616.348C534.909 616.625 534.832 616.93 534.832 617.263C534.832 617.582 534.909 617.887 535.061 618.178C535.213 618.455 535.428 618.684 535.705 618.864C535.983 619.044 536.308 619.134 536.683 619.134Z" fill="white" fill-opacity="0.75"/>
<path d="M617.551 622.647V616.91C617.551 616.438 617.413 616.071 617.135 615.808C616.858 615.53 616.505 615.392 616.075 615.392C615.784 615.392 615.521 615.454 615.285 615.579C615.063 615.704 614.89 615.877 614.765 616.099C614.641 616.32 614.578 616.591 614.578 616.91L613.165 616.244C613.165 615.427 613.331 614.727 613.664 614.145C614.01 613.549 614.481 613.091 615.077 612.772C615.673 612.44 616.366 612.273 617.156 612.273C617.974 612.273 618.681 612.44 619.277 612.772C619.887 613.091 620.351 613.535 620.67 614.103C621.002 614.671 621.169 615.33 621.169 616.078V622.647H617.551ZM610.961 622.647V607.492H614.578V622.647H610.961Z" fill="white" fill-opacity="0.75"/>
</g>
<defs>
<clipPath id="clip0_53_109">
<rect width="632" height="632" rx="25" fill="white"/>
</clipPath>
</defs>
</svg>
