<svg width="239" height="63" viewBox="0 0 239 63" fill="none" xmlns="http://www.w3.org/2000/svg">
<g clip-path="url(#clip0_106_170)">
<rect x="0.662231" y="5.48598" width="51.1129" height="51.1129" rx="17.0376" fill="white"/>
<rect x="0.662231" y="5.48598" width="25.5564" height="25.5564" fill="#B5D78A"/>
<rect x="26.2186" y="5.48598" width="25.5564" height="25.5564" fill="#5D7C36"/>
<rect x="0.662231" y="31.0424" width="25.5564" height="25.5564" fill="#5D7C36"/>
<rect x="26.2186" y="31.0424" width="25.5564" height="25.5564" fill="#B5D78A"/>
<g filter="url(#filter0_d_106_170)">
<path d="M17.1875 46.4414V44.5763H33.5564V46.4414H17.1875Z" fill="white"/>
<path d="M17.1875 42.0895V43.3329H33.5564V42.0895C32.366 42.0895 31.5723 40.4316 31.3243 39.6026H19.4196C19.4196 40.5974 17.9315 41.675 17.1875 42.0895Z" fill="white"/>
<path d="M24.3087 19.6712V18.4401H23.2037V16.9012H24.4315V15.6701H26.1504V16.9012H27.6237V18.2349H26.1504V19.6712H24.3087Z" fill="white"/>
<path fill-rule="evenodd" clip-rule="evenodd" d="M19.4196 38.548H31.3243C31.637 38.0692 32.4879 36.8418 32.1396 35.9832C31.3071 33.9314 25.9048 29.9303 23.7906 28.9044C23.013 28.1863 21.7279 26.4833 22.8083 25.4163C23.1357 26.408 24.0607 28.3915 25.1411 28.3915H30.6662C31.2801 28.7334 32.9745 29.2122 34.3496 28.3915C34.7998 27.7759 35.4055 26.2165 34.2268 24.9033C31.894 24.151 26.6391 22.1539 24.2817 20.1841H23.4222C23.3813 20.4919 23.2258 21.1075 22.9311 21.1075C22.5628 21.1075 21.8261 20.9023 21.9489 20.1841H20.9666C21.0076 20.8681 20.5983 22.236 18.6338 22.236V23.3645C18.9613 23.4329 19.6161 23.6928 19.6161 24.1852V24.3904H17.6516V25.6215H19.125V26.6474H17.6516V28.1863H19.125V28.9044H17.6516V30.6485H19.125V31.3666H17.8972V32.9055H19.3705V33.6236H17.8972V35.3677H19.125V38.548H19.4196ZM25.4137 24.3904C25.4137 23.4876 26.1504 23.4671 26.5187 23.4671C26.8871 23.4671 27.501 23.4876 27.501 24.3904C27.501 25.2932 26.8871 25.3137 26.5187 25.3137C26.1504 25.3137 25.4137 25.2932 25.4137 24.3904Z" fill="white"/>
<path d="M25.9042 18.2349V19.425H24.5549V18.4401V18.1939H24.3087H23.4499V17.1474H24.4315H24.6776V16.9012V15.9163H25.9042V16.9012V17.1474H26.1504H27.3776V17.9887H26.1504H25.9042V18.2349ZM21.2094 20.4303H21.6932C21.7033 20.5409 21.7317 20.6436 21.7767 20.7377C21.8577 20.9069 21.9846 21.0315 22.1207 21.1209C22.3864 21.2953 22.7135 21.3536 22.9311 21.3536C23.0988 21.3536 23.225 21.2643 23.3088 21.1718C23.3918 21.0802 23.4531 20.9653 23.4988 20.8566C23.5569 20.7182 23.5996 20.5659 23.6287 20.4303H24.1932C25.4039 21.4195 27.2971 22.4006 29.164 23.2254C31.0379 24.0535 32.9084 24.734 34.0865 25.1167C34.5875 25.7012 34.7073 26.3287 34.654 26.8856C34.601 27.4392 34.3762 27.9216 34.1797 28.2056C33.5604 28.56 32.8672 28.6377 32.2443 28.5823C31.6042 28.5253 31.0609 28.3295 30.786 28.1764L30.7302 28.1453H30.6662H25.1411C24.9487 28.1453 24.7422 28.0569 24.5237 27.8763C24.3058 27.6962 24.0942 27.4392 23.8981 27.1406C23.5059 26.5437 23.2012 25.8209 23.0421 25.3391L22.9177 24.9623L22.6354 25.2411C21.9895 25.879 22.0755 26.6992 22.3771 27.3897C22.6786 28.08 23.2195 28.7121 23.6236 29.0853L23.6503 29.11L23.6831 29.1259C24.716 29.6271 26.5785 30.8707 28.2913 32.2508C29.1458 32.9393 29.9569 33.6569 30.6041 34.3268C31.2574 35.0031 31.7222 35.6094 31.9115 36.0758C32.0458 36.4069 31.9576 36.8465 31.7544 37.309C31.5837 37.6976 31.354 38.054 31.1914 38.3018H19.4196H19.3711V35.3677V35.1215H19.125H18.1433V33.8698H19.3705H19.6167V33.6236V32.9055V32.6593H19.3705H18.1433V31.6128H19.125H19.3711V31.3666V30.6485V30.4023H19.125H17.8978V29.1506H19.125H19.3711V28.9044V28.1863V27.9401H19.125H17.8978V26.8936H19.125H19.3711V26.6474V25.6215V25.3753H19.125H17.8978V24.6366H19.6161H19.8622V24.3904V24.1852C19.8622 23.817 19.6161 23.564 19.3834 23.4104C19.2201 23.3026 19.0381 23.2256 18.88 23.1755V22.4751C19.7855 22.4219 20.3801 22.0748 20.7443 21.6205C21.0529 21.2358 21.1815 20.7923 21.2094 20.4303ZM17.4337 46.1952V44.8224H33.3103V46.1952H17.4337ZM33.3103 43.0867H17.4337V42.232C17.8122 42.0086 18.3197 41.6564 18.7529 41.2414C18.9949 41.0096 19.2198 40.7522 19.3856 40.4809C19.5064 40.2831 19.6005 40.0701 19.6422 39.8488H31.1449C31.2895 40.2708 31.5403 40.8256 31.8881 41.3021C32.2345 41.7766 32.7113 42.2184 33.3103 42.3158V43.0867ZM26.5187 23.2209C26.3386 23.2209 26.0054 23.2227 25.7158 23.3711C25.5649 23.4484 25.4235 23.5663 25.3217 23.7417C25.2206 23.9158 25.1675 24.1311 25.1675 24.3904C25.1675 24.6497 25.2206 24.865 25.3217 25.0391C25.4235 25.2144 25.5649 25.3323 25.7158 25.4097C26.0054 25.5581 26.3386 25.5599 26.5187 25.5599C26.6966 25.5599 27.0082 25.5592 27.2733 25.4025C27.5667 25.229 27.7471 24.9042 27.7471 24.3904C27.7471 23.8766 27.5667 23.5518 27.2733 23.3783C27.0082 23.2215 26.6966 23.2209 26.5187 23.2209Z" stroke="white" stroke-width="0.49234"/>
</g>
</g>
<path d="M83.0914 41.4065C81.7659 41.4065 80.5197 41.1451 79.3529 40.6223C78.186 40.0903 77.1592 39.3575 76.2724 38.424C75.3949 37.4905 74.7041 36.4124 74.2001 35.1895C73.7053 33.9573 73.4579 32.6411 73.4579 31.2409C73.4579 29.8313 73.7053 28.5151 74.2001 27.2923C74.7041 26.0601 75.3949 24.9819 76.2724 24.0578C77.1592 23.1243 78.186 22.3962 79.3529 21.8734C80.5197 21.3413 81.7659 21.0753 83.0914 21.0753C84.6784 21.0753 86.1393 21.444 87.4741 22.1815C88.809 22.9096 89.9152 23.8851 90.7926 25.1079L87.0401 27.1242C86.5547 26.5642 85.9712 26.1161 85.2898 25.78C84.6083 25.444 83.8756 25.276 83.0914 25.276C82.3447 25.276 81.6399 25.43 80.9771 25.738C80.3237 26.0461 79.7449 26.4755 79.2408 27.0262C78.7461 27.5676 78.3587 28.1977 78.0787 28.9165C77.7986 29.6353 77.6586 30.4101 77.6586 31.2409C77.6586 32.0623 77.7986 32.8325 78.0787 33.5512C78.3587 34.27 78.7461 34.9048 79.2408 35.4555C79.7449 35.997 80.3237 36.4264 80.9771 36.7437C81.6399 37.0518 82.3447 37.2058 83.0914 37.2058C83.8756 37.2058 84.6083 37.0378 85.2898 36.7017C85.9712 36.3563 86.5547 35.8989 87.0401 35.3295L90.7926 37.3738C89.9152 38.5874 88.809 39.5628 87.4741 40.3003C86.1393 41.0377 84.6784 41.4065 83.0914 41.4065ZM106.446 32.095V41.0424H102.246V33.2712C102.246 32.8325 102.138 32.4357 101.924 32.081C101.709 31.717 101.424 31.4322 101.07 31.2269C100.715 31.0122 100.318 30.9048 99.8794 30.9048C99.4407 30.9048 99.0393 31.0122 98.6752 31.2269C98.3205 31.4322 98.0358 31.717 97.8211 32.081C97.6157 32.4357 97.513 32.8325 97.513 33.2712V41.0424H93.3124L93.2984 20.0391H97.499L97.513 27.9224C97.9798 27.521 98.5119 27.2083 99.1093 26.9842C99.7067 26.7602 100.337 26.6482 101 26.6482C102.008 26.6482 102.923 26.8955 103.744 27.3903C104.565 27.8757 105.219 28.5291 105.704 29.3506C106.199 30.172 106.446 31.0869 106.446 32.095ZM115.13 41.4065C113.842 41.4065 112.665 41.0751 111.601 40.4123C110.546 39.7495 109.702 38.8581 109.067 37.7379C108.441 36.6177 108.129 35.3809 108.129 34.0273C108.129 33.0098 108.311 32.0577 108.675 31.1709C109.039 30.2747 109.538 29.4906 110.173 28.8185C110.817 28.1371 111.564 27.605 112.413 27.2223C113.263 26.8395 114.168 26.6482 115.13 26.6482C116.25 26.6482 117.272 26.8955 118.196 27.3903C119.13 27.8757 119.914 28.5385 120.549 29.3786C121.193 30.2094 121.65 31.1475 121.921 32.193C122.192 33.2385 122.22 34.3167 122.005 35.4275H112.665C112.796 35.7543 112.969 36.053 113.183 36.3237C113.407 36.585 113.678 36.7951 113.996 36.9538C114.322 37.1125 114.7 37.1965 115.13 37.2058C115.54 37.2151 115.919 37.1265 116.264 36.9398C116.619 36.7531 116.927 36.501 117.188 36.1837L121.473 37.1778C120.903 38.4193 120.054 39.4368 118.924 40.2303C117.795 41.0144 116.53 41.4065 115.13 41.4065ZM112.511 32.3471H117.762C117.631 31.9457 117.435 31.5909 117.174 31.2829C116.913 30.9748 116.605 30.7321 116.25 30.5548C115.905 30.3774 115.531 30.2887 115.13 30.2887C114.738 30.2887 114.364 30.3774 114.01 30.5548C113.664 30.7321 113.361 30.9748 113.099 31.2829C112.847 31.5909 112.651 31.9457 112.511 32.3471ZM128.371 41.2945C127.662 41.2291 126.98 41.0751 126.327 40.8324C125.673 40.5897 125.09 40.2583 124.576 39.8382C124.063 39.4182 123.657 38.9047 123.358 38.298L126.887 36.7857C126.98 36.8884 127.111 37.0191 127.279 37.1778C127.447 37.3272 127.657 37.4625 127.909 37.5839C128.17 37.7052 128.483 37.7659 128.847 37.7659C129.09 37.7659 129.323 37.7426 129.547 37.6959C129.781 37.6399 129.967 37.5465 130.107 37.4158C130.257 37.2852 130.331 37.1031 130.331 36.8698C130.331 36.6084 130.233 36.4124 130.037 36.2817C129.851 36.1416 129.622 36.0436 129.351 35.9876C129.08 35.9223 128.828 35.8709 128.595 35.8336C127.764 35.7029 126.966 35.4415 126.201 35.0495C125.445 34.6481 124.824 34.13 124.338 33.4952C123.853 32.8511 123.61 32.0997 123.61 31.2409C123.61 30.2794 123.858 29.4486 124.352 28.7485C124.847 28.0484 125.491 27.5116 126.285 27.1382C127.087 26.7555 127.951 26.5642 128.875 26.5642C129.967 26.5642 130.975 26.7882 131.9 27.2363C132.833 27.6843 133.598 28.3284 134.196 29.1686L130.891 31.1289C130.779 30.9888 130.639 30.8488 130.471 30.7088C130.313 30.5594 130.126 30.4334 129.911 30.3307C129.706 30.2187 129.482 30.1487 129.239 30.1207C128.912 30.0927 128.618 30.1067 128.357 30.1627C128.105 30.2094 127.904 30.3121 127.755 30.4708C127.606 30.6201 127.531 30.8395 127.531 31.1289C127.531 31.3996 127.662 31.5956 127.923 31.717C128.184 31.8383 128.478 31.927 128.805 31.983C129.132 32.039 129.398 32.0997 129.603 32.165C130.406 32.4264 131.162 32.7671 131.872 33.1872C132.581 33.6073 133.15 34.116 133.58 34.7134C134.019 35.3109 134.224 36.011 134.196 36.8138C134.196 37.7472 133.916 38.5687 133.356 39.2781C132.796 39.9876 132.072 40.5243 131.185 40.8884C130.299 41.2524 129.36 41.3878 128.371 41.2945ZM140.596 41.2945C139.886 41.2291 139.205 41.0751 138.551 40.8324C137.898 40.5897 137.314 40.2583 136.801 39.8382C136.288 39.4182 135.882 38.9047 135.583 38.298L139.111 36.7857C139.205 36.8884 139.335 37.0191 139.503 37.1778C139.671 37.3272 139.881 37.4625 140.134 37.5839C140.395 37.7052 140.708 37.7659 141.072 37.7659C141.314 37.7659 141.548 37.7426 141.772 37.6959C142.005 37.6399 142.192 37.5465 142.332 37.4158C142.481 37.2852 142.556 37.1031 142.556 36.8698C142.556 36.6084 142.458 36.4124 142.262 36.2817C142.075 36.1416 141.846 36.0436 141.576 35.9876C141.305 35.9223 141.053 35.8709 140.82 35.8336C139.989 35.7029 139.191 35.4415 138.425 35.0495C137.669 34.6481 137.048 34.13 136.563 33.4952C136.078 32.8511 135.835 32.0997 135.835 31.2409C135.835 30.2794 136.082 29.4486 136.577 28.7485C137.072 28.0484 137.716 27.5116 138.509 27.1382C139.312 26.7555 140.176 26.5642 141.1 26.5642C142.192 26.5642 143.2 26.7882 144.124 27.2363C145.058 27.6843 145.823 28.3284 146.42 29.1686L143.116 31.1289C143.004 30.9888 142.864 30.8488 142.696 30.7088C142.537 30.5594 142.351 30.4334 142.136 30.3307C141.93 30.2187 141.706 30.1487 141.464 30.1207C141.137 30.0927 140.843 30.1067 140.582 30.1627C140.33 30.2094 140.129 30.3121 139.979 30.4708C139.83 30.6201 139.755 30.8395 139.755 31.1289C139.755 31.3996 139.886 31.5956 140.148 31.717C140.409 31.8383 140.703 31.927 141.03 31.983C141.356 32.039 141.622 32.0997 141.828 32.165C142.631 32.4264 143.387 32.7671 144.096 33.1872C144.806 33.6073 145.375 34.116 145.804 34.7134C146.243 35.3109 146.448 36.011 146.42 36.8138C146.42 37.7472 146.14 38.5687 145.58 39.2781C145.02 39.9876 144.297 40.5243 143.41 40.8884C142.523 41.2524 141.585 41.3878 140.596 41.2945ZM148.788 41.0424L152.596 21.4394H156.181L160.577 33.0052L164.974 21.4394H168.559L172.367 41.0424H168.083L166.038 30.4568L162.034 41.0424H159.121L155.116 30.4568L153.072 41.0424H148.788ZM184.111 27.0402H188.311V41.0424H184.097L183.901 39.7822C183.555 40.2676 183.116 40.6597 182.584 40.9584C182.062 41.2571 181.45 41.4065 180.75 41.4065C179.705 41.4065 178.724 41.2104 177.81 40.8184C176.904 40.4263 176.106 39.8849 175.415 39.1941C174.725 38.494 174.183 37.6912 173.791 36.7857C173.408 35.8709 173.217 34.8908 173.217 33.8453C173.217 32.8465 173.399 31.913 173.763 31.0449C174.127 30.1767 174.636 29.4159 175.289 28.7625C175.952 28.0997 176.713 27.5816 177.572 27.2083C178.44 26.8349 179.369 26.6482 180.358 26.6482C181.161 26.6482 181.889 26.8162 182.542 27.1522C183.205 27.479 183.793 27.8897 184.307 28.3844L184.111 27.0402ZM180.638 37.3738C181.217 37.3738 181.744 37.2245 182.22 36.9258C182.696 36.6271 183.074 36.2257 183.355 35.7216C183.635 35.2175 183.775 34.6574 183.775 34.0413C183.775 33.4252 183.635 32.8651 183.355 32.3611C183.074 31.857 182.696 31.4556 182.22 31.1569C181.744 30.8582 181.217 30.7088 180.638 30.7088C180.059 30.7088 179.532 30.8582 179.056 31.1569C178.589 31.4556 178.216 31.857 177.936 32.3611C177.665 32.8651 177.53 33.4252 177.53 34.0413C177.53 34.6574 177.67 35.2175 177.95 35.7216C178.23 36.2257 178.603 36.6271 179.07 36.9258C179.546 37.2245 180.069 37.3738 180.638 37.3738ZM195.155 41.2945C194.445 41.2291 193.764 41.0751 193.111 40.8324C192.457 40.5897 191.874 40.2583 191.36 39.8382C190.847 39.4182 190.441 38.9047 190.142 38.298L193.671 36.7857C193.764 36.8884 193.895 37.0191 194.063 37.1778C194.231 37.3272 194.441 37.4625 194.693 37.5839C194.954 37.7052 195.267 37.7659 195.631 37.7659C195.874 37.7659 196.107 37.7426 196.331 37.6959C196.564 37.6399 196.751 37.5465 196.891 37.4158C197.04 37.2852 197.115 37.1031 197.115 36.8698C197.115 36.6084 197.017 36.4124 196.821 36.2817C196.634 36.1416 196.406 36.0436 196.135 35.9876C195.864 35.9223 195.612 35.8709 195.379 35.8336C194.548 35.7029 193.75 35.4415 192.985 35.0495C192.228 34.6481 191.608 34.13 191.122 33.4952C190.637 32.8511 190.394 32.0997 190.394 31.2409C190.394 30.2794 190.641 29.4486 191.136 28.7485C191.631 28.0484 192.275 27.5116 193.069 27.1382C193.871 26.7555 194.735 26.5642 195.659 26.5642C196.751 26.5642 197.759 26.7882 198.683 27.2363C199.617 27.6843 200.382 28.3284 200.98 29.1686L197.675 31.1289C197.563 30.9888 197.423 30.8488 197.255 30.7088C197.096 30.5594 196.91 30.4334 196.695 30.3307C196.49 30.2187 196.266 30.1487 196.023 30.1207C195.696 30.0927 195.402 30.1067 195.141 30.1627C194.889 30.2094 194.688 30.3121 194.539 30.4708C194.389 30.6201 194.315 30.8395 194.315 31.1289C194.315 31.3996 194.445 31.5956 194.707 31.717C194.968 31.8383 195.262 31.927 195.589 31.983C195.916 32.039 196.182 32.0997 196.387 32.165C197.19 32.4264 197.946 32.7671 198.655 33.1872C199.365 33.6073 199.934 34.116 200.364 34.7134C200.802 35.3109 201.008 36.011 200.98 36.8138C200.98 37.7472 200.7 38.5687 200.14 39.2781C199.58 39.9876 198.856 40.5243 197.969 40.8884C197.082 41.2524 196.144 41.3878 195.155 41.2945ZM211.048 31.2409H208.668V41.0424H204.467V31.2409H202.647V27.0402H204.467V22.6435H208.668V27.0402H211.048V31.2409ZM219.462 41.4065C218.174 41.4065 216.998 41.0751 215.934 40.4123C214.879 39.7495 214.034 38.8581 213.399 37.7379C212.774 36.6177 212.461 35.3809 212.461 34.0273C212.461 33.0098 212.643 32.0577 213.007 31.1709C213.371 30.2747 213.871 29.4906 214.506 28.8185C215.15 28.1371 215.897 27.605 216.746 27.2223C217.595 26.8395 218.501 26.6482 219.462 26.6482C220.583 26.6482 221.605 26.8955 222.529 27.3903C223.462 27.8757 224.247 28.5385 224.881 29.3786C225.525 30.2094 225.983 31.1475 226.253 32.193C226.524 33.2385 226.552 34.3167 226.338 35.4275H216.998C217.129 35.7543 217.301 36.053 217.516 36.3237C217.74 36.585 218.011 36.7951 218.328 36.9538C218.655 37.1125 219.033 37.1965 219.462 37.2058C219.873 37.2151 220.251 37.1265 220.597 36.9398C220.951 36.7531 221.259 36.501 221.521 36.1837L225.805 37.1778C225.236 38.4193 224.387 39.4368 223.257 40.2303C222.128 41.0144 220.863 41.4065 219.462 41.4065ZM216.844 32.3471H222.095C221.964 31.9457 221.768 31.5909 221.507 31.2829C221.245 30.9748 220.937 30.7321 220.583 30.5548C220.237 30.3774 219.864 30.2887 219.462 30.2887C219.07 30.2887 218.697 30.3774 218.342 30.5548C217.997 30.7321 217.693 30.9748 217.432 31.2829C217.18 31.5909 216.984 31.9457 216.844 32.3471ZM228.576 41.0424L228.562 27.0402H232.762L232.776 27.9224C233.243 27.521 233.775 27.2083 234.373 26.9842C234.97 26.7602 235.6 26.6482 236.263 26.6482C236.767 26.6482 237.28 26.7228 237.803 26.8722L236.151 31.1289C235.824 30.9795 235.488 30.9048 235.143 30.9048C234.704 30.9048 234.303 31.0122 233.939 31.2269C233.584 31.4322 233.299 31.717 233.084 32.081C232.879 32.4357 232.776 32.8325 232.776 33.2712V41.0424H228.576Z" fill="white"/>
<defs>
<filter id="filter0_d_106_170" x="8.64569" y="7.98249" width="34.8079" height="47.8549" filterUnits="userSpaceOnUse" color-interpolation-filters="sRGB">
<feFlood flood-opacity="0" result="BackgroundImageFix"/>
<feColorMatrix in="SourceAlpha" type="matrix" values="0 0 0 0 0 0 0 0 0 0 0 0 0 0 0 0 0 0 127 0" result="hardAlpha"/>
<feOffset dy="0.854181"/>
<feGaussianBlur stdDeviation="4.2709"/>
<feComposite in2="hardAlpha" operator="out"/>
<feColorMatrix type="matrix" values="0 0 0 0 0 0 0 0 0 0 0 0 0 0 0 0 0 0 0.5 0"/>
<feBlend mode="normal" in2="BackgroundImageFix" result="effect1_dropShadow_106_170"/>
<feBlend mode="normal" in="SourceGraphic" in2="effect1_dropShadow_106_170" result="shape"/>
</filter>
<clipPath id="clip0_106_170">
<rect x="0.662231" y="5.48598" width="51.1129" height="51.1129" rx="17.0376" fill="white"/>
</clipPath>
</defs>
</svg>
